<svg xmlns="http://www.w3.org/2000/svg" width="685.701" height="651.956" viewBox="0 0 685.701 651.956">
  <g id="Group_26" data-name="Group 26" transform="translate(-4264.149 3358.965)">
    <g id="blog" transform="translate(4206.5 -3433.5)">
      <path id="Path_2" data-name="Path 2" d="M272.69,350.77A24.63,24.63,0,0,1,260,340.5c10.12-13.59,11.85-32.39,2.94-47.11-9.39-15.49-26.61-22.15-44.2-20.24-18,2-33.29,12.5-38.3,30.36-4.57,16.26,1.76,33.51,14.85,43.93,15.91,12.66,38.64,11.82,54.76.05a24.57,24.57,0,0,0,22.61,5,.91.91,0,0,0,.03-1.72Zm-21.83-5a1,1,0,0,0-.35-.2.71.71,0,0,0-.9,0c-13.26,9.92-31.65,12.54-46.58,4.71-13.75-7.22-23.19-22.27-22.25-38a39.59,39.59,0,0,1,29.94-36c16.52-4.28,34.46-1.23,46.17,11.81,12.91,14.37,13.17,36.12,1.62,51.34a.85.85,0,0,0-.42,1.24,26.43,26.43,0,0,0,11.41,10.54,22.56,22.56,0,0,1-18.64-5.41Z" transform="translate(0.5 0.5)" fill="#fff"/>
      <path id="Path_3" data-name="Path 3" d="M625,370.57c-21.82-29.1-68.38-15.6-81.54,15-6.89,16.05-.59,38.25,18.61,41.32a.92.92,0,0,0,1-.56A24.55,24.55,0,0,0,581,445.76a.92.92,0,0,0,1-1.33,19.73,19.73,0,0,1-2.14-14.7c16.83,1.95,34.75-2.33,45.51-16.32C635.3,400.47,634.67,383.48,625,370.57Zm-46.4,57.21c-1.11-.16-1.59,1.49-.54,1.71a21.53,21.53,0,0,0,1.36,13.88,22.8,22.8,0,0,1-14.65-17.69c-.15-.93-1.32-.77-1.65-.07a.69.69,0,0,0-.57-.41c-16.47-2.64-23.37-20.88-18.7-35.5,4.82-15.13,18.67-26.79,33.57-31.39,14.66-4.53,31-2.21,42.15,8.78,10.83,10.62,14.9,26.86,7.43,40.55-9.45,17.29-30,22.73-48.41,20.14Z" transform="translate(0.5 0.5)" fill="#020202"/>
      <path id="Path_4" data-name="Path 4" d="M638.57,586.22q-2-13.25-4-26.48L632.67,547c-.37-2.44-.29-5-2-6.93a.92.92,0,0,0-1.28,0,75.08,75.08,0,0,1-12.13,8.24l-.05-.06c-13.93-11-33.1-14.56-49.86-8.23A51.88,51.88,0,0,0,535.8,576.2a.92.92,0,0,0,1.52.87.94.94,0,0,0,.83.8,95.331,95.331,0,0,1,21.1,4.72.74.74,0,0,0,.77-.14c.64.3,1.57-.16,1.27-1-1.6-4.44,3.52-10.73,6.29-13.72A32.18,32.18,0,0,1,578,560.31a31.4,31.4,0,0,1,15-2.57c3.87.29,12.21,1.53,14.88,5.35a.6.6,0,0,0-.21.21q-4.07,6.12-7.74,12.46a.91.91,0,0,0,.54,1.32l37,10.25a.92.92,0,0,0,1.1-1.11Zm-36.46-10.56q3.27-5.56,6.82-11c.64.33,1.61-.13,1.3-1-1.73-4.83-9.25-6.58-13.75-7.34a33.08,33.08,0,0,0-32,12.31c-2.43,3.1-5.82,7.78-5.17,12A97.813,97.813,0,0,0,538.2,576a.72.72,0,0,0-.47.1c3.91-15.46,15.14-28.7,30.15-34.42,16.09-6.12,34.69-2.82,48.11,7.77a.93.93,0,0,0,1,.11.85.85,0,0,0,1.15.28c3.53-1.92,6.63-4.31,10-6.47,2.42-1.55,2.15-.54,2.55,2.07.45,2.94.88,5.89,1.32,8.83q2.29,15.43,4.6,30.88Z" transform="translate(0.5 0.5)" fill="#020202"/>
      <path id="Path_5" data-name="Path 5" d="M638.88,606.34v.3a61.547,61.547,0,0,1-13.29-.53c-3.67-.58-7.2-1.64-10.93-1.82a2,2,0,0,0-1.2,1.1c-3.21,18.4-32,36-46.2,17.93l5.3-8.88a.92.92,0,0,0-.53-1.33L533.79,599.3a.91.91,0,0,0-1.11,1.11q6.87,23.75,14.52,47.26a.92.92,0,0,0,1.51.4l8.67-9.16c16.11,10.14,34.78,15.06,53.06,7.51a50.2,50.2,0,0,0,30.18-39.61C640.77,605.68,639,605.19,638.88,606.34Zm-30.41,38.94c-17.65,6.69-35.32,1.56-50.65-8.22a.79.79,0,0,0-1.13.24.82.82,0,0,0-.5.26l-7.73,8.15q-7.12-21.93-13.54-44.09l35.49,12.84-5.36,9a.91.91,0,0,0,1,1.31c15,18.68,45.37.93,49-18.63,4,.28,7.9,1.49,11.89,2a64.484,64.484,0,0,0,11.54.33c-2.99,16.53-14.07,30.76-30.01,36.81Z" transform="translate(0.5 0.5)" fill="#020202"/>
      <path id="Path_6" data-name="Path 6" d="M190.15,235.14c-31.74,9-60.6,27.78-79.3,55.21q-4.86-12.06-9.7-24.13a1,1,0,0,0-1.71-.2q-10.66,6.15-21.72,11.57a.73.73,0,0,0-.45.69.89.89,0,0,0-.4,1.23Q95.14,313.26,113.4,347a.91.91,0,0,0,1.64-.21,213.25,213.25,0,0,1,75.8-110C191.6,236.21,191.21,234.84,190.15,235.14ZM113.94,344.22Q96.32,311.67,78.7,279.1q10.77-5.28,21.17-11.26,4.95,12.33,9.91,24.65a.91.91,0,0,0,1.64.21c17.51-26.47,44.59-44.91,74.6-54.43a215.27,215.27,0,0,0-72.08,105.95Z" transform="translate(0.5 0.5)" fill="#fff"/>
      <path id="Path_7" data-name="Path 7" d="M708.34,467.21l-.63-.5a.87.87,0,0,0-.72-.57q-25.49-20.22-49.23-42.47a.92.92,0,0,0-1.27,0l-46,41c-.79.7.19,1.8,1,1.42h.06c1.68.11,7.49-.45,8.87.57,1.74,1.29.82,6.13.81,7.95q-.07,9.21-.14,18.44-.06,8.73-.13,17.46c0,2.43-1.19,8.13.18,10.62a.86.86,0,0,0,.39.56l.06.07a.86.86,0,0,0,1.15.07l71.24,1.6a.89.89,0,0,0,.57-1.56c2.55-17.64-.24-35.5,1.57-53.21h.1a39.831,39.831,0,0,1,10.1-.82l.73.58C708,469.19,709.25,467.93,708.34,467.21ZM695.75,467a.75.75,0,0,0-.58.47.93.93,0,0,0-.8.82c-1.89,17.76,1,35.7-1.58,53.39l-69.87-1.58-.22-.14a.609.609,0,0,0-.12-.05c-.43-1.8.17-6.24.18-7.39V506.7q.06-6.79.1-13.58.11-13.59.2-27.18a.93.93,0,0,0-.9-.9l-8.75-.56,22-19.67,11.87-10.59,5.94-5.3c2.83-2.52,3.55-3.6,6.66-.71q21.3,19.76,44,37.85a42,42,0,0,0-8.13.94Z" transform="translate(0.5 0.5)" fill="#020202"/>
      <path id="Path_8" data-name="Path 8" d="M417.3,267.05c-14.32-18.75-48.86-17.26-62.06,1.85a29.29,29.29,0,0,0-9.79-7.1c-12.26-5.5-28.82-5.69-41.13-.27C293.7,266.21,284.77,276.82,286,289a21.52,21.52,0,0,0,8.35,15.27c6.14,4.47,14.21,3.92,21.36,5.28a17.56,17.56,0,0,1-4.86,8.42.91.91,0,0,0,.64,1.54c7.95-.26,19.83-2.22,19.36-12.69h0c9.7.87,19.81-2.26,25.72-9.78a25.91,25.91,0,0,0,17.09,8.25,21.51,21.51,0,0,0,13.88,15.57c.79.29,1.35-.67,1-1.32a15.35,15.35,0,0,1-1.31-10.88c10.54,3.35,22.62.16,29.68-8.53C424.43,290.82,424.52,276.49,417.3,267.05Zm-86.54,37.89a.78.78,0,0,0-.84,1,.81.81,0,0,0-.88.87c.38,8.49-8.59,10.34-15.44,10.78a19.15,19.15,0,0,0,4.15-9c.18-1-1.18-1.5-1.62-.78-6.49-1.21-13.76-.73-19.55-4.19-6.13-3.66-9.28-11.12-8.88-18.08.92-16.32,18-24.8,32.36-25.78s34.38,2.85,38.84,18.92c4.77,17.1-13.45,27.61-28.14,26.26Zm56.94,1.91a.9.9,0,0,0-1.76-.28,17.19,17.19,0,0,0,.13,11.67,19.79,19.79,0,0,1-10.93-14.63c-.15-.87-1.19-.79-1.59-.2a24,24,0,0,1-15.79-7.78.937.937,0,0,0-.18-.12,23.161,23.161,0,0,0,2.39-4.62c2.85-7.53.92-14.9-3.58-20.63a.85.85,0,0,0,.25-.25c11.93-17.59,42.6-19.33,57.26-4.17a25.69,25.69,0,0,1,3.11,31c-6.18,9.65-18.63,13.41-29.31,10.01Z" transform="translate(0.5 0.5)" fill="#fff"/>
      <path id="Path_9" data-name="Path 9" d="M341.1,294.62l-38.23.23a.9.9,0,0,0,0,1.8l38.23-.23a.9.9,0,0,0,0-1.8Z" transform="translate(0.5 0.5)" fill="#fff"/>
      <path id="Path_10" data-name="Path 10" d="M341.1,282.19a371,371,0,0,0-38.75.5c-1.15.08-1.16,1.88,0,1.8a371.006,371.006,0,0,1,38.75-.5A.9.9,0,0,0,341.1,282.19Z" transform="translate(0.5 0.5)" fill="#fff"/>
      <path id="Path_11" data-name="Path 11" d="M343.6,271.89q-21.09-1.33-42.22-.63a.9.9,0,0,0,0,1.8q21.14-.71,42.22.63C344.76,273.77,344.76,272,343.6,271.89Z" transform="translate(0.5 0.5)" fill="#fff"/>
      <path id="Path_12" data-name="Path 12" d="M407.14,289.92a338.177,338.177,0,0,1-38.73.6.9.9,0,0,0,0,1.8,338.184,338.184,0,0,0,38.73-.6C408.29,291.64,408.3,289.84,407.14,289.92Z" transform="translate(0.5 0.5)" fill="#fff"/>
      <path id="Path_13" data-name="Path 13" d="M406.65,281.17l-38.23-1.37a.9.9,0,0,0,0,1.8l38.23,1.4A.917.917,0,0,0,406.65,281.17Z" transform="translate(0.5 0.5)" fill="#fff"/>
      <path id="Path_14" data-name="Path 14" d="M407,269.88c-.88-1-2.18-.73-3.45-.76-4.18-.07-8.38,0-12.56.12-8,.22-16.07.76-24.08,1.55-1.14.12-1.16,1.92,0,1.8,6.41-.63,12.83-1.11,19.26-1.38,2.89-.13,5.79-.21,8.69-.26,1.46,0,8.12-.75,10.28-.1v.08a2.4,2.4,0,0,1,.11.23.91.91,0,0,0,1.23.32l.32-.18a.92.92,0,0,0,.2-1.42Z" transform="translate(0.5 0.5)" fill="#fff"/>
      <path id="Path_15" data-name="Path 15" d="M662.72,283.22a7.76,7.76,0,0,0-8.27-6.26.81.81,0,0,0-.82-.21c-3.88,1.06-6.78,5-6,9.08a7.64,7.64,0,0,0,15.05-2.61Zm-7,7c-7.07.48-8.35-9.2-2.27-11.51a.87.87,0,0,0,.58.1,5.78,5.78,0,1,1,1.69,11.41Z" transform="translate(0.5 0.5)" fill="#020202"/>
      <path id="Path_16" data-name="Path 16" d="M652,257.82a.88.88,0,0,0-.54.45,6,6,0,0,0,.39,10.51,1,1,0,0,0,1.13,1c12.83-2.5,15.81,13,15.15,22.29a.73.73,0,0,0,.48.79,6.4,6.4,0,0,0,11.86,0,.69.69,0,0,0,.56-.61C684,275.41,672.45,251.59,652,257.82Zm27.5,32.62a.91.91,0,0,0-.32.59,4.64,4.64,0,0,1-9.05.86.871.871,0,0,0-.17-.3c.58-10.39-3.35-25.47-16.46-23.69a.9.9,0,0,0-.52-.53,4.26,4.26,0,0,1,.12-7.95h0c18.16-4.97,28.31,15.73,26.42,31.02Z" transform="translate(0.5 0.5)" fill="#020202"/>
      <path id="Path_17" data-name="Path 17" d="M703.74,293c.59-14.72-1.69-30.2-11.75-41.64-10.39-11.8-25.45-12.93-40.21-12.87a.8.8,0,0,0-.73.43,7.71,7.71,0,0,0,.59,13.58.87.87,0,0,0,.87,0,.83.83,0,0,0,.61.07c11.19-2.74,23.24,1.41,29.78,11.06,5.79,8.56,6.63,19.36,6.2,29.39a.78.78,0,0,0,.33.7c1.49,7.85,12.73,8,14.48.06A.83.83,0,0,0,703.74,293Zm-12.66-.26a.77.77,0,0,0-.16-.39c.41-11.21-.93-23.33-8.41-32.23-7.25-8.64-19-12-29.86-9.31a.838.838,0,0,0-.19.09,5.92,5.92,0,0,1-.23-10.61c14.13,0,28.53,1,38.49,12.34,9.72,11.07,11.79,26.15,11.22,40.37a.79.79,0,0,0,.16.52,5.59,5.59,0,0,1-11.02-.76Z" transform="translate(0.5 0.5)" fill="#020202"/>
      <path id="Path_18" data-name="Path 18" d="M98.65,377.39c.12-11.62-8.92-23.55-21.52-21.79s-18.86,15-18.36,26.64c.31,6.95,2.55,13.59,5.26,19.94,3,7.07,6.37,14,11.44,19.85.09.1.19.26.29.31a.9.9,0,0,0,.81.66h2c.81,0,1-1,.71-1.51,4.08-7.75,8.17-15.55,12.24-23.3C95,391.65,98.57,385,98.65,377.39ZM77.44,422h-.55a3.566,3.566,0,0,0-.14-.75c-7.68-8.83-13.4-21.9-15.55-33.36-2.26-12.09,2-28.36,16.18-30.34,15.6-2.17,22,15.81,18,28.12-2.1,6.47-5.94,13-9.1,19C83.36,410.29,80.4,416,77.44,422Z" transform="translate(0.5 0.5)" fill="#fff"/>
      <path id="Path_19" data-name="Path 19" d="M89.08,374.94a10.17,10.17,0,0,0-10.24-9.65A10,10,0,0,0,69,374.54a9,9,0,0,0,10,9.31,1,1,0,0,0,.18-.06C85,384,89.44,381.36,89.08,374.94ZM85,380.67c-1.82,1.47-3.6,1.41-5.85,1.32a.88.88,0,0,0-.41.08A7.18,7.18,0,0,1,70.76,375a8.17,8.17,0,0,1,8.08-7.92,8.36,8.36,0,0,1,8.28,6.64A6.72,6.72,0,0,1,85,380.67Z" transform="translate(0.5 0.5)" fill="#fff"/>
      <path id="Path_20" data-name="Path 20" d="M160.71,475.54a.88.88,0,0,0-.67.13.75.75,0,0,0-.63-.22,6.9,6.9,0,0,0-5.67,4.16l-17.43-10.27a10.11,10.11,0,0,0,0-7.25,99.251,99.251,0,0,0,20.78-10.66c.11.76,1.21,1.22,1.63.37v-.08a6.38,6.38,0,0,0,6.47-.67,6.62,6.62,0,0,0,.81-9.73,5.59,5.59,0,0,0-6.68-1,.92.92,0,0,0-.56.06,6.38,6.38,0,0,0-2.78,9.09c.08.13.18.24.27.36a97.412,97.412,0,0,1-20.67,10.64c-2.09-4.06-6.31-6.68-10.67-3.42a.94.94,0,0,0-.31.42,9,9,0,0,0-3.53,10.49c1.75,4.45,7.31,7,11.72,4.9a6.921,6.921,0,0,0,2.51-1.95l17.6,10.29a.82.82,0,0,0,.34.12,7.223,7.223,0,0,0-.08.8,6.13,6.13,0,0,0,5.92,6.2c3.28.26,6.44-1.72,6.89-5.12a7,7,0,0,0-5.26-7.66Zm-3.11-31.75a.79.79,0,0,0,1.15-.33,3.77,3.77,0,0,1,6.64-.11,4.88,4.88,0,0,1-1.68,6.59,4.6,4.6,0,0,1-4.62-.09l-.11-.41a1,1,0,0,0-1.14-.64,4.707,4.707,0,0,1-.38-.5,4.24,4.24,0,0,1,.14-4.51Zm-27.67,28c-8.15.48-10-10.47-2.9-13.58a.72.72,0,0,0,.44-.49c7.13-2.66,11.85,13.5,2.46,14.05Zm29.59,14.78c-2.38-.06-4.57-1.67-4.56-4.21a5.15,5.15,0,0,1,4.45-5.09.861.861,0,0,0,.44-.16.76.76,0,0,0,.38.19c5.38,1.07,5.2,9.41-.71,9.25Z" transform="translate(0.5 0.5)" fill="#fff"/>
      <path id="Path_21" data-name="Path 21" d="M514.51,329.06a34.5,34.5,0,0,0-34.7,14.14c-7.56,11.23-6.38,27,1.74,37.59,9.1,11.91,27,15.4,39,5.72a.77.77,0,0,0,.43-.39,4.23,4.23,0,0,0-2.55-5.9.78.78,0,0,0-.93.33h-.08c-9.52,6.79-22.55,5.62-30-3.72-6.13-7.73-7.61-24.73.05-32.16,7.81-7.59,23.46-10.3,33.11-5.33a18.044,18.044,0,0,1,2.74,30.35c-4.33.36-.82-13.81-.61-16,.27-2.78.18-5-1.19-7.42a.8.8,0,0,0-1-.39,3.85,3.85,0,0,0-6,1.13c-3.36-3.41-9.06-3.45-13.61-2.84-6.58.88-10.47,4.77-11.05,11.4-.6,6.79.2,14.49,6.05,18.85,5.45,4.06,12.43,3.24,17.48-1a.841.841,0,0,0,.19-.24c3.46,3.83,9,4.56,13.77,2.51,5.84-2.54,8.67-8.91,9.38-14.91C538.55,345.79,529.51,332.12,514.51,329.06Zm19.69,35.48c-2.45,8-13,15.35-19.75,6.92-.54-.67-1.37-.13-1.47.56a.89.89,0,0,0-.84.17c-5.14,4.29-12.48,4.17-17-.94-3.4-3.81-3.74-9.33-3.49-14.2.3-5.82,2.58-9.78,8.46-10.93,4.38-.86,11.22-1.09,14,3.1a1.11,1.11,0,0,0,1.93-.31,2,2,0,0,1,3.65-1.4.85.85,0,0,0,.68.38c2.54,5.61-1.19,12.86-1.26,18.67,0,2.46.83,4.58,3.07,4.94a.79.79,0,0,0,1.23.44c10.47-7.35,12.32-22.61,2.28-31.34-10.23-8.9-28-6.25-38.09,1.69-9.27,7.31-8.7,25.44-2.49,34.43,7.6,11,22.52,13.06,33.25,5.42h0a2.4,2.4,0,0,1,1.09,3,1.1,1.1,0,0,0-.15.08c-13.14,10.62-32.3,3.78-39.4-10.47-6.62-13.34-3.17-29.73,9.13-38.41s31.81-8.69,41.24,4.42a28.54,28.54,0,0,1,3.93,23.78Z" transform="translate(0.5 0.5)" fill="#020202"/>
      <path id="Path_22" data-name="Path 22" d="M515,353.81a1.4,1.4,0,0,0-1.48-1.47c-3.53-2.61-8.15-4.09-12.41-2.27s-6,5.71-5.62,10.1c.36,4,1.31,8.24,5.71,9.35,3.87,1,9.47.19,12.66-2.19.35-.26.79-.65.72-1,0-.16.42-.33.42-.53Zm-17.47,8.56c-.74-3.8-.22-7.95,3.5-10.16s9-.85,12,1.7v11.9c0,.14-.34.25-.32.37-2.2,1.36-5.08,1.69-7.64,1.81C501,368.17,498.32,366.4,497.53,362.37Z" transform="translate(0.5 0.5)" fill="#020202"/>
      <path id="Path_23" data-name="Path 23" d="M564.81,460.28a13,13,0,0,0-14.5-.65,1.11,1.11,0,0,0-.22-.21A508.373,508.373,0,0,1,507,428.92a.839.839,0,0,0-.31-.16,15.33,15.33,0,0,0,.86-7.83c-1.31-8.61-9.59-15-18.31-13.5-7.95,1.37-14,9.6-12.87,17.61a14.532,14.532,0,0,0,1.18,4,1,1,0,0,0-1.3-.09,418.184,418.184,0,0,1-38.75,27.62.83.83,0,0,0-.38.52,13.779,13.779,0,0,0-2.79-2.76c-7.42-5.42-16.86-2.8-22.75,3.45a1,1,0,0,0-.36.31c-4.76,6.92-2.18,18.23,4.09,23.55,7.06,6,17.56,3,22.15-4.46,3.44-5.59,3.9-13.36.46-18.93a.86.86,0,0,0,.49-.13,419.744,419.744,0,0,0,39.11-27.9.76.76,0,0,0,.31-.6,15.229,15.229,0,0,0,2.69,3.72Q464.28,471.46,444.57,508a.581.581,0,0,0-.05.16c-5.54-1.19-16,2.78-16.55,9.2a.89.89,0,0,0-.48.72c-.6,8.18,1.76,16.69,11.1,18.18,7.83,1.25,15.25-4.79,16.37-12.46a13.81,13.81,0,0,0-8.72-15.12q19.54-36.21,35.68-74.08a16.93,16.93,0,0,0,9.73,3.74,154.642,154.642,0,0,0-.73,25.73c-6.36-.25-11.84,4.45-13.29,10.63a.87.87,0,0,0-.34.61c-.82,7,3.57,14,10.73,15.26a13.365,13.365,0,1,0,4.88-26.28h-.17a153.721,153.721,0,0,1,.72-25.92h.45a.91.91,0,0,0,.84-.79,13.329,13.329,0,0,0,3-.48,736.5,736.5,0,0,0,28.53,73.3v.05c-7.39.69-12.81,7.2-12.81,14.76a.83.83,0,0,0,.11.43,13.13,13.13,0,0,0,11.31,14,15.07,15.07,0,0,0,17.17-13,14.58,14.58,0,0,0-13.3-16.14h-1a.92.92,0,0,0,.08-.9,727.879,727.879,0,0,1-28.39-73,13.5,13.5,0,0,0,6.5-6.05,512.438,512.438,0,0,0,42.81,30.35,14.94,14.94,0,0,0-3.39,3.72.86.86,0,0,0-.11.63,11.43,11.43,0,0,0,1.44,16.41c6.23,5,15.11,3.07,19.92-2.9C571.22,472.86,571,464.79,564.81,460.28ZM436.86,474.35c-3.65,8.06-14.73,12.07-21.4,4.9-4.66-5-6.65-14-2.93-19.9,5-5.5,12.83-8.37,19.66-4.32C438.86,459,439.84,467.75,436.86,474.35Zm9.65,36.4c5.78,2.72,8.11,9.37,6,15.33s-8.9,9.81-15,8.09c-7.07-2-8.57-8.44-8.33-14.79a.71.71,0,0,0,.56-.82c-.26-2.3,2.58-4.89,4.26-6a21.242,21.242,0,0,1,2.84-1.75,11.1,11.1,0,0,1,9.67-.06Zm81.6,1.33a12.78,12.78,0,0,1,12.27,13,13.26,13.26,0,0,1-12.7,12.81c-7.91.29-14.08-6.8-11.85-14.55a.8.8,0,0,0-.28-.88,12.48,12.48,0,0,1,12.56-10.38ZM501.69,480a11.62,11.62,0,0,1-13.41,8.72c-5.95-1.09-9.46-6.53-9.28-12.27a.7.7,0,0,0,.16-.37c1-6.21,6.65-11.38,13.26-10.07A11.69,11.69,0,0,1,501.69,480Zm-2.85-45.24c-.5-.74-1.81-.34-1.63.59a12.379,12.379,0,0,1-3.34.4.84.84,0,0,0-.86.8c-14.57.5-20.7-19.31-6.89-26.22,7.22-3.62,16.35.67,18.95,8.1,2.25,6.44-.4,13.72-6.23,16.31Zm65.58,43.62c-4,4.23-10.49,5.68-15.58,2.44a9.67,9.67,0,0,1-1.45-15.37.79.79,0,0,0,.17-1c3.53-4.68,9.69-6.52,15.09-3.43,6.74,3.85,6.76,12.1,1.77,17.34Z" transform="translate(0.5 0.5)" fill="#020202"/>
      <path id="Path_24" data-name="Path 24" d="M199.63,164.48c-1.68-11.7-12.14-20.31-23.84-18.23h-.12c-13.38.88-19.79,15.18-17.59,27.22,2.15,11.79,14.43,17.86,25.54,14.89A21.39,21.39,0,0,0,199.63,164.48Zm-15.2,21.74c-9.39,3.14-20.87-.82-24-10.82-3.38-10.73,1.91-25.32,13.79-27.2a.86.86,0,0,0,.64.09c10.8-2.72,20.74,4.77,22.84,15.34a19.55,19.55,0,0,1-13.27,22.59Z" transform="translate(0.5 0.5)" fill="#fff"/>
      <path id="Path_25" data-name="Path 25" d="M191.17,170.57c-.1-1.15-1.9-1.16-1.8,0,1.1,12.24-19.6,10.71-21.46.22-.2-1.14-1.93-.66-1.73.48C168.42,183.92,192.43,184.69,191.17,170.57Z" transform="translate(0.5 0.5)" fill="#fff"/>
      <path id="Path_26" data-name="Path 26" d="M176.78,157.79c.22-1.13-1.52-1.62-1.74-.48a44.819,44.819,0,0,0-.76,10.72c.06,1.15,1.86,1.16,1.8,0a42.86,42.86,0,0,1,.7-10.24Z" transform="translate(0.5 0.5)" fill="#fff"/>
      <path id="Path_27" data-name="Path 27" d="M184.23,156.59c.1-1.16-1.7-1.15-1.8,0a95,95,0,0,0-.18,11.93c.06,1.16,1.86,1.16,1.8,0a95,95,0,0,1,.18-11.93Z" transform="translate(0.5 0.5)" fill="#fff"/>
      <path id="Path_28" data-name="Path 28" d="M147.88,202.25c-3.54-3.73-8.69-4.48-13.56-5a.92.92,0,0,0-.68-.36c-11.36-.66-17.62,10-17.86,20.19-.26,11,7.62,17.64,18.52,17.21,11.22-.43,17.87-8.89,17.71-19.7C152,210.26,151,205.51,147.88,202.25ZM134.3,232.52c-9.77.42-17-5.35-16.72-15.41.27-9.05,5.38-18.61,15.46-18.41a.89.89,0,0,0,.61.32c4.17.4,8.62.83,11.95,3.66,3.5,3,4.56,7.52,4.61,11.94C150.34,224.43,144.53,232.09,134.3,232.52Z" transform="translate(0.5 0.5)" fill="#fff"/>
      <path id="Path_29" data-name="Path 29" d="M143.68,223.93a16.67,16.67,0,0,0-20.51-.37c-.91.69,0,2.25.91,1.56a14.87,14.87,0,0,1,18.33.08C143.31,225.91,144.59,224.65,143.68,223.93Z" transform="translate(0.5 0.5)" fill="#fff"/>
      <path id="Path_30" data-name="Path 30" d="M130,208v8c0,2,1,2,1,0v-8C131,207,130,207,130,208Z" transform="translate(0.5 0.5)" fill="#fff"/>
      <path id="Path_31" data-name="Path 31" d="M137.84,207.81c.21-1.14-1.53-1.62-1.73-.48a25.38,25.38,0,0,0,0,9c.2,1.14,1.93.66,1.74-.48A22.57,22.57,0,0,1,137.84,207.81Z" transform="translate(0.5 0.5)" fill="#fff"/>
      <path id="Path_32" data-name="Path 32" d="M109.77,475.9c2.93-10.16-.86-21-9.55-26.15l15.21-27.68c2-3.58,7.91-10.71,4.68-14.72a3.2,3.2,0,0,0-3.6-2.79c-3.5.19-6.09,4.1-7.7,6.78-6.59,11-11.4,23.38-16.93,34.92C72.19,440.08,48.41,463,60.37,482.59,72.45,502.35,103.39,498.07,109.77,475.9Zm.25-63a22.438,22.438,0,0,1,2.09-3.22c1.3-2,3.34-2.56,6.11-1.62a2.352,2.352,0,0,1,.19.25.73.73,0,0,0,.2.39c1.72,4.35-8.06,18.56-9.52,21.22l-10.46,19a21.768,21.768,0,0,0-3.49-1.35c-.51-.25-1-.47-1.55-.68q4.81-10,9.64-20.09c1.64-3.41,3.25-6.84,4.92-10.24.6-1.26,1.18-2.5,1.85-3.7Zm-4.5,68.36a25.52,25.52,0,0,1-30.3,11c-12.29-4.41-20.35-17.64-14-30C67.31,450.4,81.67,443,94.08,449a1,1,0,0,0,.37.2h.08c.31.16.62.32.92.49a.74.74,0,0,0,.73,0c12.56,4.74,16.04,20.31,9.34,31.53Z" transform="translate(0.5 0.5)" fill="#fff"/>
      <path id="Path_33" data-name="Path 33" d="M94.14,453.59a.87.87,0,0,0-.69,0c-10.52-2.8-19.81-2.77-26.29,7.34-2.81,4.37-5.63,9.52-3.44,14.69,1.9,4.48,6,8.2,10.15,10.49,9,4.91,20.19,3.91,25.86-5.22S105.53,458.09,94.14,453.59Zm2.77,28.28c-5.93,7.48-16.78,6.4-24,1.52-3.27-2.2-6.88-5.65-8-9.62-1.25-4.62,2.66-10.88,5.53-14.39,6.21-7.59,14.93-6.16,23.32-3.84a.88.88,0,0,0,.39,0c10.31,4.81,8.98,18.46,2.76,26.33Z" transform="translate(0.5 0.5)" fill="#fff"/>
      <path id="Path_34" data-name="Path 34" d="M226.86,475.14a33.66,33.66,0,0,0-35.3-1.33c-11,6.45-17.27,19.48-16.66,32.06.66,13.49,9.93,26.57,23.86,28.35a37,37,0,0,0,16.81,20.48.92.92,0,0,0,1.33-1,57,57,0,0,1,0-17.58c12.68-1.82,24.43-10,26-23.49C244.35,499.42,237.93,482.78,226.86,475.14Zm10.78,47.07c-4.66,7.23-13.07,11.12-21.37,12.17a.93.93,0,0,0-.74.56.72.72,0,0,0-.38.56,60.089,60.089,0,0,0-.26,16.67,35.06,35.06,0,0,1-14.5-18.71.85.85,0,0,0-.81-.62.93.93,0,0,0-.67-.4c-16.26-2-24.5-19.88-21.64-34.68,2.8-14.44,14.37-25.84,29.35-26.47,16.89-.71,28.26,10.94,32.77,26.37C241.75,505.74,242.39,514.84,237.64,522.21Z" transform="translate(0.5 0.5)" fill="#fff"/>
      <path id="Path_35" data-name="Path 35" d="M217,479.61c-1.77-1.7-8.28-.32-10.33-.23-2.41.11-8-.7-10,.92s-.5,5.56-.27,7.6a250.158,250.158,0,0,0,5.36,30.5c.2.8,1.11.6,1.54.6h8c.46,0,1.32.15,1.44-.63,1.62-9.83,3-19.84,4.14-29.74C217.2,486.4,219,481.46,217,479.61Zm-2.67,15.81c-.89,7.12-1.93,14.58-3.08,21.58h-8c-1.51-7-2.81-13.12-3.8-19.62-.55-3.56-2-8.56-1.52-12.18.62-4.79,6-3.84,9.7-4a36.625,36.625,0,0,1,4.79-.2,5,5,0,0,1,3.43.84l-.2,2c.35,3.53-.86,8.16-1.3,11.58Z" transform="translate(0.5 0.5)" fill="#fff"/>
      <path id="Path_36" data-name="Path 36" d="M213.24,528.11c-.39-2.13-.79-4.27-1.18-6.4a.93.93,0,0,0-1.11-.63,39.4,39.4,0,0,1-8,.28.77.77,0,0,0-.85.77.8.8,0,0,0-.35.46,15.06,15.06,0,0,0-.65,5.5c0,.43.39,1,.9.9a33.1,33.1,0,0,1,10.18.23.91.91,0,0,0,1.06-1.11Zm-10.41-1a13.54,13.54,0,0,1,.57-3.93,41.629,41.629,0,0,0,7.06-.25c.27,1.45.54,2.91.8,4.36A34.45,34.45,0,0,0,202.83,527.11Z" transform="translate(0.5 0.5)" fill="#fff"/>
      <path id="Path_37" data-name="Path 37" d="M651.51,178.93l-8.44.78c-4.44-21.32-31.56-26.09-49.65-21.11-19.7,5.43-29.79,25.81-23.69,45.07a.87.87,0,0,0,.68.6.92.92,0,0,0,.77.22l9.44-1.42c.84-.12.8-1.09.27-1.53a.77.77,0,0,0,.21-.62c-.57-6.61-1.24-13.78,1.68-20,2.77-5.89,8.45-9.88,14.54-11.8,11.79-3.71,32-1.68,34.54,13.13a34.93,34.93,0,0,0-8.55,2.73.9.9,0,0,0,0,1.55,87.92,87.92,0,0,1,19,13,.92.92,0,0,0,1.42-.19,92,92,0,0,0,8.68-19.3.9.9,0,0,0-.9-1.11Zm-8.83,18.6a89,89,0,0,0-16.83-11.66,32.808,32.808,0,0,1,6.87-1.93h0c.53.13,1.13-.14,1-.82-1.92-15.67-20.52-19.07-33.45-16.57-6.94,1.34-13.66,4.94-17.66,10.93-4.63,6.95-4.08,15.51-3.39,23.45a1,1,0,0,0,.22.51l-8.2,1.24c-5.46-18.15,3.95-37.2,22.58-42.33,17.2-4.74,43.1-.48,47.42,19.78a.9.9,0,0,0,.34,1.47.88.88,0,0,0,1.53-.09l7-.65A89.006,89.006,0,0,1,642.68,197.53Z" transform="translate(0.5 0.5)" fill="#020202"/>
      <path id="Path_38" data-name="Path 38" d="M648.87,204.51a.88.88,0,0,0-1.52-.33l-8.7,2.2a2.471,2.471,0,0,0-1.09,1.14c.31,12.32-10.5,19.6-21.34,22.16-10,2.36-22.29,2.08-28.19-7.55l7.6-2.14a.91.91,0,0,0,.21-1.65q-8.62-6.28-17.78-11.79a.9.9,0,0,0-1.23.32l-8.59,20c-.29.66.19,1.57,1,1.32l9.67-3C594.09,256.29,657.66,240.25,648.87,204.51ZM620,238.67c-14.92,3.91-32.55.39-39.65-14.67a.72.72,0,0,0-.95-.4.77.77,0,0,0-.74-.13l-8,2.46,3.49-8.13c.82-1.92,2.36-8.31,4.59-8.78,1.31-.28,6.32,4,7.51,4.77q3.63,2.4,7.16,5l-6.27,1.77a.82.82,0,0,0-.63.77.86.86,0,0,0-.31,1.18c6.18,10.92,19.58,11.54,30.56,8.94,11.48-2.72,22.67-10.56,22.66-23.37l8-2C650.78,223,634.66,234.81,620,238.67Z" transform="translate(0.5 0.5)" fill="#020202"/>
      <path id="Path_39" data-name="Path 39" d="M511.52,310.16a3.17,3.17,0,0,0-1.26-1,.73.73,0,0,0,0-.52c-5.61-13.62-17.64-25.69-32.7-27.22a15.93,15.93,0,0,0,8.44-15.3,16.87,16.87,0,0,0-18-15.72,16.56,16.56,0,0,0-15.21,18.08A16,16,0,0,0,465,282.3c-14.2,3.05-27.08,12.93-26.16,28.81a.93.93,0,0,0,.16.46c-.95.23-.9,1.8.19,1.76l35.24-1.28,16.64-.6,8.81-.32c2.05-.08,8.29.68,9.92-.91-.83.81.44,2.09,1.27,1.28l.26-.25a.91.91,0,0,0,.19-1.09ZM454.8,269.58a14.79,14.79,0,0,1,13.25-17.38,15.06,15.06,0,0,1,16.17,13.92c.68,8.14-5.72,15.78-14.17,14.82a.73.73,0,0,0-.52.12C462.65,281.08,456.19,276.65,454.8,269.58Zm46.11,39.71-20.56.75-39.72,1.44a.87.87,0,0,0,.06-.37c-1.07-18.58,18.32-28.68,34.87-28,15,.62,27.14,12.35,32.76,25.61-2.49-.23-5.56.5-7.41.57Z" transform="translate(0.5 0.5)" fill="#020202"/>
      <path id="Path_40" data-name="Path 40" d="M524.67,198.63c-11.44-2.81-26.08-2.36-36.66,3.26a22.6,22.6,0,0,0-10.61,28.57c5,13.12,19.29,18.45,32.4,16.77A17.08,17.08,0,0,1,503.44,262c-.79.64.1,1.61.87,1.5a25.51,25.51,0,0,0,20-15.79.91.91,0,0,0,.62.1c11.21-2.18,20.22-11.71,20.59-23.35C545.94,211.58,536.78,201.59,524.67,198.63Zm-.21,47.43a.81.81,0,0,0-.41.22,1,1,0,0,0-1.29.52A23.7,23.7,0,0,1,507,261.09a18.62,18.62,0,0,0,4.6-14.51.94.94,0,0,0-.67-.81,1,1,0,0,0-.89-.36c-14.55,2.15-30.61-5.58-32.3-21.46-1.71-16,13.16-23.46,26.86-24.68,13.28-1.19,30,.41,36.67,13.78,6.95,13.95-1.79,30.09-16.81,33.01Z" transform="translate(0.5 0.5)" fill="#020202"/>
      <path id="Path_41" data-name="Path 41" d="M528.66,230.14q-19.12-.3-38.23.29a.9.9,0,0,0,0,1.8q19.11-.58,38.23-.29a.9.9,0,1,0,0-1.8Z" transform="translate(0.5 0.5)" fill="#020202"/>
      <path id="Path_42" data-name="Path 42" d="M528.65,218l-38.22-1.37c-1.16-.05-1.16,1.75,0,1.8l38.22,1.37A.9.9,0,0,0,528.65,218Z" transform="translate(0.5 0.5)" fill="#020202"/>
      <path id="Path_43" data-name="Path 43" d="M326.53,394.63a11.569,11.569,0,0,0-1.79-1.41c11.4-8.12,17.42-22.94,13.92-36.71-3.76-14.76-17.85-25.16-32.85-25.6a.83.83,0,0,0-.85,1,.8.8,0,0,0-.62.83q.69,41.46,1.37,82.92a.87.87,0,0,0,.15.5.86.86,0,0,0,.26.68l3.48,3.47a.82.82,0,0,0,1.09.1c7.83,1,16.8-2,20.33-9.62C333.71,405,331.39,398.31,326.53,394.63Zm1.78-9.87a.89.89,0,0,0,.14.37l-.64.74-.79.31C327.46,385.72,327.9,385.25,328.31,384.76Zm9.28-16.28c0-.47.06-.93.07-1.41a.89.89,0,0,0-.11-.41,38.43,38.43,0,0,0-.9-10.59c.08.31.19.61.27.92a31,31,0,0,1,.67,11.49ZM330,344.12c-.39-.38-.78-.76-1.21-1.13a.93.93,0,0,0-.32-.18A34.126,34.126,0,0,0,326,340.3a33.41,33.41,0,0,1,4,3.82Zm-1.95,60.79a.72.72,0,0,0-.08.57,12,12,0,0,1-1.9,4.53c-4.16,6-11.44,6.8-18.1,5.86a.8.8,0,0,0-.27,0l-.2-.2h0q-.67-41.19-1.36-82.39l.18.05c13.3,1.23,25.2,11.31,27.8,24.59s-4.76,27-16.58,33.2a.76.76,0,0,0-.43.83c-.46.54-.26,1.56.62,1.47a9.85,9.85,0,0,1,4.73.63.73.73,0,0,0,.4.18,9.32,9.32,0,0,1,.94.5.8.8,0,0,0,.39.51,10.906,10.906,0,0,1,1.25.84,10.7,10.7,0,0,1,2.62,8.83Zm2.06-1.34a11.09,11.09,0,0,1,.05,3.77,8.838,8.838,0,0,0-.28-1.63,13.086,13.086,0,0,0,.24-2.14Z" transform="translate(0.5 0.5)" fill="#fff"/>
      <path id="Path_44" data-name="Path 44" d="M311.42,396.38a.72.72,0,0,0-.63.87.78.78,0,0,0-.17.53q.21,6.21.43,12.43a1.25,1.25,0,0,0,.38.89c.07.37.34.9.83.9h2c.43,0,.7-.45.81-.77a6.75,6.75,0,0,0,7.38-6.76C322.44,398.59,316.67,395.5,311.42,396.38ZM314.19,409a.91.91,0,0,0,0-.3q-.33-4.95-.65-9.92A.87.87,0,0,0,313,398c3.46-.15,6.93,1.67,7.52,5.41S317.75,410.39,314.19,409Z" transform="translate(0.5 0.5)" fill="#fff"/>
      <path id="Path_45" data-name="Path 45" d="M314.31,340.17a.89.89,0,0,0-1.11.25.88.88,0,0,0-1.31.76q.27,22.35.87,44.68a.91.91,0,0,0,1.44.7.86.86,0,0,0,1,.12,26.09,26.09,0,0,0-.89-46.51Zm.23,44.82c-.08-2.95-.14-5.91-.21-8.86.18,2.75.35,5.5.57,8.24a.9.9,0,0,0,.1.35c-.16.09-.3.19-.46.28Zm2.11-1.31q-1.56-20.48-1.63-41v-.07a24.23,24.23,0,0,1,1.63,41.07Z" transform="translate(0.5 0.5)" fill="#fff"/>
      <path id="Path_46" data-name="Path 46" d="M369.23,411.19a.93.93,0,0,0-.94-.86c-.59-.58-1.18-.94-1.76-1.53-.39-.39-.87.2-1.19.2h-9.6a1.858,1.858,0,0,0,.07-.56c0-23.67.41-47.46,1.22-71.11a.86.86,0,0,0-.68-.9l-3.17-5.06a.9.9,0,0,0-1.43-.14.84.84,0,0,0-.24-.07l-6-.64a4.5,4.5,0,0,0-1.01,1.72q.08,42,.14,83.92a.87.87,0,0,0,1.17.81c.79,1,1.59,2,2.38,3a.73.73,0,0,0,.82.57,95.343,95.343,0,0,1,18.35.13.73.73,0,0,0,.84-.71,1,1,0,0,0,.83-.83,40.174,40.174,0,0,0,.2-7.94ZM353.57,408a.79.79,0,0,0,.5.49h-.91v-.79a.82.82,0,0,0,.41.3Zm-.51-10.5-.13-13.76a.731.731,0,0,0,.26.29Zm1.51-60.62a.78.78,0,0,0-.49.68v-1.48Zm.11,19.47c-.08,3.6-.17,7.2-.24,10.81,0-3.59-.09-7.18-.13-10.77a.92.92,0,0,0,.37,0Zm-1.4-21.52a.89.89,0,0,0-.8.28v-1.58ZM365,411.54v4c-6,.27-12.43,1-18.18-.3,0-.06-.15-.12-.2-.19-.05-27.54-.2-55.08-.26-82.63l4.31.46q.34,37.92.7,75.85a1.12,1.12,0,0,0,.66,1.06c0,.5.24,1.23.74,1.23H365C364.87,411,365,411.14,365,411.54Z" transform="translate(0.5 0.5)" fill="#fff"/>
      <path id="Path_47" data-name="Path 47" d="M396.81,333.68a.74.74,0,0,0-1.07.18,10,10,0,0,0-4.51-.5c-13.27-.64-14.93,19.23-16,28.53a117.331,117.331,0,0,0-.26,25.48c.66,6.68,1.43,13.95,4.48,20,.06.13.14.25.21.38a.72.72,0,0,0,0,.68,14.83,14.83,0,0,0,15.2,9.41,10.57,10.57,0,0,0,9.39-3.68c5.37-6.18,5.32-16.63,6.21-24.33C412.48,371.91,413.74,345.45,396.81,333.68Zm9.94,66.88.27-1a.87.87,0,0,0,.45,0l-.18,1a.91.91,0,0,0-.54,0Zm-14.26,14.16c-16.16.34-16.31-28-16.33-38.68a116.939,116.939,0,0,1,2.1-22.32c1.35-7,3.35-18.34,12.21-18.57h0a.94.94,0,0,0,.94.43c10.17-1.48,12.66,13.12,14,20.28a97.792,97.792,0,0,1,1.4,21.68,130.44,130.44,0,0,1-2.93,22.61C402.57,406.14,400,414.56,392.49,414.72Z" transform="translate(0.5 0.5)" fill="#020202"/>
      <path id="Path_48" data-name="Path 48" d="M400.92,355.39c-.94-5.59-3.14-10.86-8.59-13.26a.9.9,0,0,0-.6,0,.91.91,0,0,0-.82-.29c-5.64.81-6.93,6.13-7.64,11A204.29,204.29,0,0,0,381,376.35a76.309,76.309,0,0,0,2.5,23.31c1.09,3.79,2.34,9.74,7.39,9.45,4.72-.27,6.72-5.13,8.07-9a69.38,69.38,0,0,0,3.59-22.33,126.524,126.524,0,0,0-1.63-22.39Zm-6.86-10.08c.25.21.49.43.72.65a7.349,7.349,0,0,0-1.22-.25,1,1,0,0,0,.5-.4Zm-8.15,4.33a16.6,16.6,0,0,0-1,2.68,22.117,22.117,0,0,1,.85-3.3,1,1,0,0,0,.24.16,2.5,2.5,0,0,1-.09.46Zm1-2.69-.24-.06a7.728,7.728,0,0,1,1.17-1.57A11,11,0,0,0,387,347Zm12.85,42.29c-.65,4.1-1.67,12.42-4.89,15.31a2.08,2.08,0,0,1-2.43,1.41,16.837,16.837,0,0,1-1-1.85c-.55-1.51-1.08-3-1.56-4.55a66.61,66.61,0,0,1-1-6.9c-.56-4.74-1.07-9.49-1.4-14.25-.3-4.22-2.15-35.14,7.7-30.38a.89.89,0,0,0,1.12-.26c4.54,6.48,4.11,17.54,4.36,24.6a86.58,86.58,0,0,1-.85,16.87Z" transform="translate(0.5 0.5)" fill="#020202"/>
      <path id="Path_49" data-name="Path 49" d="M455.91,377.65a.87.87,0,0,0-1.53-.31l-2.74-3.54a.87.87,0,0,0-.84-.78,127.8,127.8,0,0,0-15.9.28.9.9,0,0,0-.83.77.91.91,0,0,0-.1.55l.9,6.47a.71.71,0,0,0,.18.4.75.75,0,0,0,.7.8,7.24,7.24,0,0,0,9,2.6h0a27.46,27.46,0,0,1-4.22,19.82c-1.73,2.54-3.61,3-5.35,2.39a.83.83,0,0,0-.2-.52c-6.35-7.73-4.63-19.26-4.46-28.55l.29-15.09c.07-4.05-1.39-18.65,6.24-17.72a.33.33,0,0,0,.1,0,1,1,0,0,0,1.05.14,7.47,7.47,0,0,1,1.28,3.69c0,.43.29.45.6.56a.45.45,0,0,0,.46.33.85.85,0,0,0,.22.74,9,9,0,0,0,9.27,2.58l.18-.1a1,1,0,0,0,1.62-.62,16.36,16.36,0,0,0-10.29-17,16.66,16.66,0,0,0-11.22-3c-12.76,1.38-12.69,15.12-13,25-.27,8.22-.2,16.46.2,24.67.35,7.06.13,15.17,2.42,21.95a16.83,16.83,0,0,0,2,3.94.81.81,0,0,0,.09,1.1c7.35,7.26,20,14,29.19,5.55,3.83-3.53,5-8.87,5.56-13.84C457.51,393.25,457.74,385.22,455.91,377.65Zm-5.84,30.55c-.14.33-.27.66-.4,1a7.779,7.779,0,0,0-1.05.79,17.183,17.183,0,0,0,1.47-2,.718.718,0,0,0-.02.21Zm-5.68,8a1,1,0,0,0,.91,0c.42-.21.81-.44,1.19-.67a1.049,1.049,0,0,0,.29.17,11.78,11.78,0,0,1-3.51,1,1,1,0,0,0,.26-.08,4.568,4.568,0,0,0,.86-.42ZM438,382.15h.56a.76.76,0,0,0,.59.57s.07-.11.11-.1a.59.59,0,0,0,.26.28,1,1,0,0,0,.08.37h0a5.75,5.75,0,0,1-1.6-1.12Zm-7.16,21.06a15.65,15.65,0,0,1-1.69-3.26c.14.26.28.52.43.77a.8.8,0,0,0,.42.34,20.737,20.737,0,0,0,.83,2.15Zm1-57.71a1,1,0,0,0-.07-.49,5.409,5.409,0,0,1,1.23-.85l.19-.05a.19.19,0,0,0,.05.13,6.18,6.18,0,0,0-1.42,1.26Zm18.25,6a.85.85,0,0,0-.55,0l-.31.07v-.32a.77.77,0,0,0,.37-.71v-.95a8.81,8.81,0,0,0-.27-3.46c-.3-1-.76-2.39-1.77-2.86a15.275,15.275,0,0,0-.77-1.82,14.65,14.65,0,0,1,3.28,10.09ZM423.16,407c-3.7-5.66-3.25-14.21-3.66-20.73-.78-12.64-1.24-25.71.08-38.33.87-8.3,6.26-15.57,15.67-13.17a15.139,15.139,0,0,1,3.23,1.22.79.79,0,0,0,.63.7c.38.1.75.22,1.12.34a14.32,14.32,0,0,1,5.37,6.68.76.76,0,0,0,0,.38c.13.33.25.67.37,1a12.369,12.369,0,0,1,.37,3.77s0,.06,0,.11a14.4,14.4,0,0,0-4-.25c-.27,0-.48.33-.62.33h-.53a11.11,11.11,0,0,0-3.06-6.15,5.2,5.2,0,0,0-4.65-3,.76.76,0,0,0-.89-.32c-8.76,2.8-7.35,16.62-7.59,23.68-.38,11.44-1.35,24.69,1.92,35.81,1.41,4.79,7.52,14.41,13.3,9,7-6.59,7.89-18.73,5.39-27.37a.85.85,0,0,0-.82-.63.78.78,0,0,0-.47-.1l-7.63.57-.14-.07c-.25-1.78-.49-3.56-.74-5.34a125.251,125.251,0,0,1,14.37-.23.672.672,0,0,0,.06.12l.27.35c1.44,11.72,4.76,31.64-8.74,37.5A15,15,0,0,1,423.16,407Zm5.63-34.43c-.06,3.24-.32,6.75-.48,10.34a81.17,81.17,0,0,1,.48-10.39Zm-.55,17.93c-.13-1.12-.2-2.26-.24-3.4a.861.861,0,0,0,.2-.13c-.01,1.13-.01,2.31.04,3.48Zm-1.47-27a.71.71,0,0,0,.42.52c-.22,2.24-.38,4.47-.51,6.72,0-1.85,0-3.69.08-5.53.02-.6.02-1.21.01-1.8Zm11,52.3a.86.86,0,0,0-.26.64c-.64-.16-1.27-.34-1.91-.55a17.575,17.575,0,0,0,2.12-.18Zm2.24,1.07,1.5-.47a.7.7,0,0,0,.55,0l.24-.1a1,1,0,0,0,.89.54,14.078,14.078,0,0,1-3.19-.06Zm9-2.41a22.709,22.709,0,0,0,3.95-5.16c-.18.38-.35.76-.56,1.12a14.09,14.09,0,0,1-3.4,3.95Zm5.25-8.92a10.831,10.831,0,0,0,.17-1.29.77.77,0,0,0-.19-.6c.2-.68.39-1.35.55-2.05a.92.92,0,0,0-.39-.94c.28-1,.55-2,.79-3.08a.85.85,0,0,0-.23-.84c0-.36.07-.73.1-1.09a1,1,0,0,0,.18-.47l.18-2.3c0,.92-.07,1.85-.11,2.78a54.644,54.644,0,0,1-1.11,9.79Z" transform="translate(0.5 0.5)" fill="#020202"/>
      <path id="Path_50" data-name="Path 50" d="M442.87,184.62c-.2-8.75-1.29-16-10.82-17.77a3.88,3.88,0,0,0-.26-4.59c-1.48-2-4.09-2.19-6.38-2-2.09.18-4.74.36-6.15,2.17a3.4,3.4,0,0,0-.18,4.12c-1.61.09-3.2.18-4.78.23l-10,.35c-.05-3.39.78-9.65-1.91-11.8-1.28-1-3.26-.87-4.76-.89h-10c-3.49,0-10.08-1.39-13.12,1-3.23,2.49-2.42,9.14-2.5,12.82l-25.58.89a.7.7,0,0,0-.67-.24c-9.77,1.21-11.22,11.7-11.83,19.77-1,12.81,0,26,1.52,38.72,1,8.11,4.52,13,13.06,13.3,13.39.54,27.1-.75,40.48-1.3,13.15-.54,26.34-1,39.47-1.91,8.52-.6,13.37-3.35,13.95-12.31C443.26,211.7,443.18,198.1,442.87,184.62Zm-22.2-18.94c-2.63-2.8,4.15-3.61,5.46-3.67,2-.09,6.35,1.12,4.33,4a.79.79,0,0,0-.14.59,57,57,0,0,0-9.43-.15.83.83,0,0,0-.22-.77Zm-46.58-2.77c.4-2.29,2-5.65,4.41-6.64s7.39,0,10,0c2.85,0,6.32-.57,9.1,0,5.24,1,4.71,6.81,4.86,10.95l-11.89.41-16.8.58a39.711,39.711,0,0,1,.32-5.3Zm63.24,70.47c-3.84,3-10.24,2.37-14.81,2.61q-7.89.42-15.78.8-15.8.75-31.58,1.32-6.92.25-13.82.46c-5,.16-10.68,1-15.66,0-7.51-1.48-8.17-8.18-8.77-14.54-.55-5.89-1.07-11.79-1.34-17.69a144.992,144.992,0,0,1,.14-17.69c.49-6.51,1.35-16,9-17.77a1,1,0,0,0,.4.08l62.25-2.15,14.82-.51c4.47-.14,9.6-.55,13.71,1.58,5.76,3,5.05,10.15,5.17,15.7s.16,10.94.12,16.41q0,6.76-.25,13.51c-.13,5.32,1.01,14.33-3.6,17.88Z" transform="translate(0.5 0.5)" fill="#fff"/>
      <path id="Path_51" data-name="Path 51" d="M395.27,158a76.65,76.65,0,0,0-8-.06c-1.86.09-4.75-.09-6.51.65-3.17,1.36-.18,3.63-.68,5.91a1,1,0,0,0,0,.39c-.68.45-.55,1.73.43,1.65l7.06-.55c2-.16,4.52,0,6.43-.54,2.58-.76,2-4.41,2.2-6.55a.9.9,0,0,0-.93-.9Zm-3,5.82c-.93.39-2.56.2-3.53.27l-6.87.54a4.149,4.149,0,0,0-.17-1.93c-.13-.42-.67-1.1-.6-1.52.17-.9,1.84-1,2.74-1.18a51,51,0,0,1,10.49-.25c-.1,1.69-.1,3.25-2.08,4.09Z" transform="translate(0.5 0.5)" fill="#fff"/>
      <path id="Path_52" data-name="Path 52" d="M411.08,188.42c-7.94-8.87-21.57-10.64-32.58-7.17-11.25,3.54-17.31,14.56-15.75,26.08,1.78,13.17,13.08,22.37,26.09,22.63,9.79,1.22,19.79-3,25-11.75A25.25,25.25,0,0,0,411.08,188.42Zm-21.4,39.82a.88.88,0,0,0-.29-.06H389a25.643,25.643,0,0,1-3.8-.78.81.81,0,0,0-.89.28c-11.61-2.33-20.58-12.43-20-24.94.73-15.78,14.77-22.4,29-21,13.52,1.33,24.27,12.76,22.16,26.74a23.482,23.482,0,0,1-25.79,19.76Z" transform="translate(0.5 0.5)" fill="#fff"/>
      <path id="Path_53" data-name="Path 53" d="M411.16,202a22,22,0,0,0-25.56-17.15c-5.49,1.06-10.93,3.17-14,8.14a19.55,19.55,0,0,0-1.93,15.09c3,11.39,14.68,17.34,25.82,14.42a.79.79,0,0,0,.42-.27C406.25,222.25,413.18,212.06,411.16,202Zm-17.23,18.3a.74.74,0,0,0-.85.87c-9,1.47-18.1-3.16-21.23-12.2-3.63-10.5,2.17-19.49,12.57-22s20.94,2.76,24.4,13.26c3.35,10.11-3.54,21.52-14.89,20.04Z" transform="translate(0.5 0.5)" fill="#fff"/>
      <path id="Path_54" data-name="Path 54" d="M394.85,200.15a6.35,6.35,0,0,0-6.51-2,.81.81,0,0,0-1.07-.17c-3.07,1.87-4.81,6-2.86,9.34a6.34,6.34,0,1,0,10.44-7.13ZM392.27,208a4.58,4.58,0,0,1-5.71-7,1,1,0,0,0,.17-.1,4.55,4.55,0,1,1,5.54,7.14Z" transform="translate(0.5 0.5)" fill="#fff"/>
      <path id="Path_55" data-name="Path 55" d="M432.44,173.41a.91.91,0,0,0-.9-.9A82.471,82.471,0,0,0,417.6,175a.94.94,0,0,0-.67.87,20,20,0,0,0,.32,6.55c.23,1.13,2,.65,1.73-.48a18.571,18.571,0,0,1-.3-5.35,80.55,80.55,0,0,1,12-2.2c.17,2.63.34,5.27.52,7.9a58.471,58.471,0,0,1-11.53.39c-1.16-.07-1.15,1.73,0,1.8a61.5,61.5,0,0,0,12.72-.54.9.9,0,0,0,.66-.87C432.87,179.86,432.65,176.63,432.44,173.41Z" transform="translate(0.5 0.5)" fill="#fff"/>
      <path id="Path_56" data-name="Path 56" d="M574.57,155.31A7.79,7.79,0,0,0,569.1,149a9.46,9.46,0,0,0,4.12-9.54c-.6-3.86-3.37-8.06-7.26-8.73,4-3.66,3.25-9.9-1.15-13.22-5-3.82-15.21-3.87-21-.36.47-7.16-.28-14.49-3.48-21-2.55-5.2-8.39-12.87-15.16-10.72-7.57,2.4-3.56,12.82-3.37,18.41.2,5.74-.52,11.78-3.79,16.67-3.76,5.63-9.79,7-16.07,7.75a.81.81,0,0,0-.51-.37,2.71,2.71,0,0,0-2.29.41l-.05.05c0-1.37-.08-2.74-.11-4.11a.89.89,0,0,0-1-.86c-1.31-3.38-5-3.7-8.53-3.6-6.81.21-13.7.72-20.48,1.29-3.87.32-8.31.94-9.91,5-2,5.1-.44,12.53-.19,17.84q.53,11.29,1.65,22.54c.4,4.06,0,11,3.2,14.18s10.43,2.38,14.68,2.47a142.7,142.7,0,0,0,22.25-1.3,1,1,0,0,0,.71-1.49.73.73,0,0,0-.05-1.16c-1.31-1-1.19-3.89-1.08-6a.81.81,0,0,0,.81.57c9.14,0,18.27.41,27.37,1.28,8.54.82,17.12,2.59,25.73,2.35,5.31-.16,12.85-.8,16.25-5.59a8.39,8.39,0,0,0,0-9.52,6.91,6.91,0,0,0,4.18-6.93ZM472.89,181.08c-4-.26-8.13-1.11-9.49-5.65-.64-2.14-.58-4.8-.81-7q-.76-7.33-1.28-14.69T460.54,139c-.18-5.13-1.81-13.92,4.65-15.67,4.1-1.12,8.92-.83,13.16-1.09,3.65-.23,17.21-2.92,18.3,2.72a.73.73,0,0,0,.6.62q.45,15.56.88,31.11.22,7.89.44,15.76c.07,2.35-.61,5.83,1.2,7.67a142.921,142.921,0,0,1-26.88.96Zm96.48-20.34a.83.83,0,0,0-1.32.25h-.28a.9.9,0,1,0,0,1.8,7.3,7.3,0,0,0,.94-.07c6.84,8.73-7.45,12.45-13.56,12.77s-12-.61-17.94-1.35a296.376,296.376,0,0,0-36.1-2.25.8.8,0,0,0-.78.51c0-.36,0-.68,0-.94q-.09-3-.17-5.91l-.39-13.79-.62-22a.83.83,0,0,0,.92,0,1.25,1.25,0,0,1,.37-.21.72.72,0,0,0,.81.5c6.6-.73,13-1.87,17.33-7.33,4-5.09,5.17-11.74,5.06-18.07-.08-4.11-1.86-9.35-1.15-13.34,1.06-5.93,7.36-4.7,10.7-1.93a21.461,21.461,0,0,1,4.57,5.64c4.19,7.06,4.87,15.52,4.15,23.53a.8.8,0,0,0,0,1c.22.7,1.35.67,1.67-.06,3.55-3,11.5-3.64,15.72-2.59,5.34,1.33,11.32,8.26,5,12.84a.91.91,0,0,0-.37.92l-.42.06c-1.13.24-.65,2,.48,1.73,4.9-1,7.76,5.47,7.49,9.24a7.19,7.19,0,0,1-5.46,6.66.9.9,0,0,0,.17,1.76,1,1,0,0,0,.35.09c2.7.19,5.47,1.9,6.13,4.67a5.07,5.07,0,0,1-3.3,5.87Z" transform="translate(0.5 0.5)" fill="#020202"/>
      <path id="Path_57" data-name="Path 57" d="M482.76,131.82a4.69,4.69,0,0,0-3.49-3.52.71.71,0,0,0-.84-.73,4.91,4.91,0,0,0-4.26,5,4.16,4.16,0,0,0,4.71,3.9C481.22,136.25,483.27,134.3,482.76,131.82Zm-4.15,2.86c-2.83.15-3.22-3.11-1.67-4.6a.77.77,0,0,0,.72.08A2.64,2.64,0,0,1,481,132.3c.21,1.44-1.12,2.31-2.39,2.38Z" transform="translate(0.5 0.5)" fill="#020202"/>
      <path id="Path_58" data-name="Path 58" d="M243.14,377.74l-.58.48a.3.3,0,0,0-.13,0c-20.72,1.12-41.63-.31-62.35-.89l-62.85-1.77a.9.9,0,1,0,0,1.8l62.85,1.77c20,.56,40.18,1.91,60.2,1q-12.94,10.65-25.87,21.32a887.319,887.319,0,0,0-96.94-24,.91.91,0,0,0-.91.35c-.54-.15-1,.37-1,.92A.89.89,0,0,0,116,380l1.15.35q34.23,25.59,66.15,54c.87.76,2.14-.5,1.28-1.28q-30.15-26.85-62.4-51.19,43,13.26,84.88,29.65a302.431,302.431,0,0,1-23.75,24c-.86.78.41,2.05,1.27,1.27q8.4-7.59,16.17-15.8a.8.8,0,0,0,.41.75l6.53,3.86a.91.91,0,0,0,1.33-1A84.3,84.3,0,0,0,216,403a.91.91,0,0,0-.09-.55L244.41,379C245.31,378.27,244,377,243.14,377.74Zm-41.49,42.42c1.2-1.27,2.4-2.54,3.58-3.84a50.8,50.8,0,0,0,1.53,6.7l-4.65-2.74a.811.811,0,0,0-.46-.12Zm6.68,1.84a50.318,50.318,0,0,1-1.51-7.06,1,1,0,0,0-.1-.26c.62-.68,1.24-1.35,1.85-2a.88.88,0,0,0,.16-.93,1,1,0,0,0-.36-1.55q-42-16.49-85.12-29.79a887.315,887.315,0,0,1,90.42,22.69,1.14,1.14,0,0,0,.46.31,82.441,82.441,0,0,1-5.8,18.59Z" transform="translate(0.5 0.5)" fill="#fff"/>
      <path id="Path_59" data-name="Path 59" d="M382.94,484.86c-6.85-13-20.54-21.32-35-22.43a45.921,45.921,0,0,0-10.75.48,34.641,34.641,0,0,0-2.45-7.19c-6.53-13.85-20.29-23.46-34.93-27.05a58.289,58.289,0,0,0-37.12,2.91c-.13-.25-.26-.5-.41-.74-9.06-15.47-28.15-21-44.37-14-1.06.46-.15,2,.91,1.56a33.19,33.19,0,0,1,37.72,7.65,29.08,29.08,0,0,1,4.31,6.35,46.1,46.1,0,0,0-4.74,2.68c-5.79,3.76-11.3,9.41-12.73,16.4-1.08,5.34.37,12.26,6.72,12.9s12.08-4.59,14.57-10.07c3.06-6.75,2-14.58-1.14-21.14.61-.26,1.23-.52,1.84-.76a56.78,56.78,0,0,1,33.25-2.2c15.59,3.64,33,16.92,37.18,32.92-9.54,1.83-18.72,6.65-24.06,14.64-3,4.47-5,11.37-.8,15.78s11.07,3.05,15.61.14c9.75-6.25,12.86-18.17,11-29.05a44.19,44.19,0,0,1,10.4-.44,41.78,41.78,0,0,1,32.4,19.62c7.57,12.52,6.49,28.95-4,39.48a.9.9,0,1,0,1.28,1.27C388,514.1,389.78,497.82,382.94,484.86ZM253.87,462.24c-11.25,3.36-9.73-11.06-6-16.79,3.29-5.05,8.31-8.76,13.73-11.38C266.26,444.51,266.45,458.47,253.87,462.24Zm78.79,22.32c-3.23,5.55-10.5,12.15-17.56,9.6-9.5-3.43-3-15,1.61-19.45a38.45,38.45,0,0,1,19.46-9.79,27.56,27.56,0,0,1-3.51,19.64Z" transform="translate(0.5 0.5)" fill="#fff"/>
      <path id="Path_60" data-name="Path 60" d="M708.84,339.36c-20.48-16.1-55.58,2-52.3,28.65a22.16,22.16,0,0,0,9.08,15.25,18.66,18.66,0,0,0,8.08,3.25c3.13.44,5.4,1.18,6.72,4.47,1,2.56,1,6.08,1.47,8.81a.72.72,0,0,0,.5.6.936.936,0,0,0,.1.23h0a4,4,0,0,0-.82,6.25,5,5,0,0,0,.61.6c-1.45,3.2.34,5.13,3,6.2a10.46,10.46,0,0,0,18.91-3.47.92.92,0,0,0,0-.5c1.84-2.05,2.43-4.64.18-7.59a1,1,0,0,0-.31-.27,5,5,0,0,0-2.39-4.61,65.793,65.793,0,0,1-1.28-7.51c-.26-2.46-.5-3.34,1.72-4.36,2.59-1.2,5-2,7.39-3.76a26.9,26.9,0,0,0,9.1-12.55C722.4,358.12,717.73,346.36,708.84,339.36Zm-20.42,75.15a18,18,0,0,0,13.29-2.7,8.53,8.53,0,0,1-13.29,2.7Zm14.74-9.74a6.665,6.665,0,0,0,.32-.66c2.37,4.77-4.78,7.9-8.65,8.62-2.81.53-13.11.79-11-4.32,2.87,1.27,7,1.14,9.55,1,3.7-.14,7.74-1.24,9.78-4.64ZM701,399.33a.79.79,0,0,0,.19-.27c3.64,2.72-1.17,7.1-4,8a16.611,16.611,0,0,1-5,.59,41.088,41.088,0,0,1-4.15-.24c-1.33-.15-9.33-2.46-4.64-5.23a.82.82,0,0,0,.42-.65,14.76,14.76,0,0,0,6.37,1.77,1,1,0,0,0,.39,0A15,15,0,0,0,701,399.33Zm-22.19-27.89a11.461,11.461,0,0,1,2.19-2.83c3-2.82,6.34-2.84,10-3.11-1.14,11.85.67,24.5,2.89,35.27a.76.76,0,0,0,.17.36,12.608,12.608,0,0,1-2.93.4,128.212,128.212,0,0,0-12.34-30.09ZM699,384.25a.91.91,0,0,0-.66.87,66.831,66.831,0,0,0,1.6,12.45.869.869,0,0,0,0,.39.541.541,0,0,0-.16.1,13.219,13.219,0,0,1-4.1,2.58,1,1,0,0,0,0-.35c-2.17-10.54-4-23.21-2.81-35h.43c3.57-.47,6.63-2,7.73-5.63.34-1.11-1.4-1.59-1.74-.48-1,3.13-3.45,4-6.21,4.33a47.579,47.579,0,0,1,4.39-15.22c.52-1-1-2-1.56-.91a50.06,50.06,0,0,0-4.65,16.27c-1.39.06-2.77.08-4,.24a12.88,12.88,0,0,0-6.45,2.56,13.44,13.44,0,0,0-3,3.24c-.56-.95-1.11-1.9-1.69-2.84s-2.17-.08-1.56.91c.77,1.24,1.51,2.48,2.23,3.74a14.209,14.209,0,0,0-1.24,6.7c.07,1.15,1.87,1.16,1.8,0a13.15,13.15,0,0,1,.57-4.67,127.13,127.13,0,0,1,11.33,27.89,13.24,13.24,0,0,1-5.53-2h0v-.05c-.73-4.39,0-12.76-5.45-14.23-3.1-.85-6.21-.4-9.24-1.92a19.65,19.65,0,0,1-8.21-8c-8.48-15.21,4.46-33.2,19-38.39,13.69-4.88,29.33.32,35.94,13.67C722.45,364.17,714.15,381.41,699,384.25Z" transform="translate(0.5 0.5)" fill="#020202"/>
      <path id="Path_61" data-name="Path 61" d="M655.63,389.25l-7.92,7.45c-.84.8.43,2.07,1.28,1.27l7.91-7.44C657.75,389.73,656.47,388.46,655.63,389.25Z" transform="translate(0.5 0.5)" fill="#020202"/>
      <path id="Path_62" data-name="Path 62" d="M644.33,357.45l-7.89-2.19A.9.9,0,0,0,636,357l7.89,2.2a.9.9,0,0,0,.44-1.75Z" transform="translate(0.5 0.5)" fill="#020202"/>
      <path id="Path_63" data-name="Path 63" d="M675.36,325.06a31.631,31.631,0,0,1-6.24-9.61c-.43-1.06-2.18-.59-1.73.48a34.17,34.17,0,0,0,6.69,10.41C674.88,327.18,676.15,325.91,675.36,325.06Z" transform="translate(0.5 0.5)" fill="#020202"/>
      <path id="Path_64" data-name="Path 64" d="M717.26,321.11a70.457,70.457,0,0,1-6.21,8.83c-.74.88.53,2.16,1.27,1.27a72.54,72.54,0,0,0,6.49-9.19.9.9,0,0,0-1.55-.91Z" transform="translate(0.5 0.5)" fill="#020202"/>
      <path id="Path_65" data-name="Path 65" d="M741.29,359.2a10.669,10.669,0,0,1-6.83,2.7.9.9,0,0,0,0,1.8,12.66,12.66,0,0,0,8.1-3.23C743.43,359.7,742.15,358.43,741.29,359.2Z" transform="translate(0.5 0.5)" fill="#020202"/>
      <path id="Path_66" data-name="Path 66" d="M728.17,390.44a14.38,14.38,0,0,0-6.37-4.22c-1.1-.37-1.58,1.37-.48,1.74a12.66,12.66,0,0,1,5.58,3.75C727.66,392.59,728.93,391.31,728.17,390.44Z" transform="translate(0.5 0.5)" fill="#020202"/>
      <path id="Path_67" data-name="Path 67" d="M536,659.6c-1.4-7.1-3.34-14.48-6.8-20.89-4.59-8.49-13.64-13-22.08-10.88a.73.73,0,0,0,.46-1c-3.26-8.48-12.5-23.87-23.65-17.67-7.28,4-13,11.54-22.1,11.36-9.89-.18-13.62-10.4-13.66-18.8a.9.9,0,1,0-1.8,0c.05,10.83,6.15,22.46,18.66,20.32,7.36-1.26,12.41-6.57,18.43-10.45,10.61-6.86,19.16,7.33,22.38,15.72a.93.93,0,0,0,1,.58,19,19,0,0,0-8.48,4.91.8.8,0,0,0-.18,1c-7.15,6.89-5.38,20.76-3.78,29.43h0a1,1,0,0,0,.2,1.05c2.38,12.1,8.13,29.29,20.61,34.07,11.47,4.39,20.55-6.28,22.14-16.71C538.51,674.36,537.42,666.72,536,659.6ZM519.85,631c6.38,3.57,9.34,11,11.46,17.58.09.25.17.51.25.77a.72.72,0,0,0-.84-.19l-15,5.67v-.07q-1.43-3.63-2.84-7.26a.85.85,0,0,0,.47-.78v-1a7.18,7.18,0,0,0-.06-4,10.25,10.25,0,0,0-3.88-5.74.94.94,0,0,0-1.32-.82c-.66-1.7-1.32-3.39-2-5.09A16.58,16.58,0,0,1,519.85,631Zm-17.25,1.9a.79.79,0,0,0,.24-1.26,16.287,16.287,0,0,1,1.54-.84c.87,2.21,1.74,4.43,2.6,6.64a8.63,8.63,0,0,0,.23,5c.48,1.34,1.8,3.67,3.43,4.31q1.67,4.23,3.31,8.46a.994.994,0,0,0,.13.2L496,662.3C493.7,651.3,493.13,637.51,502.6,632.9Zm27.77,60c-14.58,15.26-28-8.95-31.78-20.73-.72-2.21-1.53-5-2.24-8.11l34.85-13.15a.91.91,0,0,0,.6-.8c3.97,12.68,8.57,32.34-1.43,42.8Z" transform="translate(0.5 0.5)" fill="#020202"/>
      <path id="Path_68" data-name="Path 68" d="M295.29,207.75a.83.83,0,0,0-.71-.39l-50.89-1.14a.91.91,0,0,0-1.69,0l-21.39-.48a1.169,1.169,0,0,0-.27.05c-.53-2.18-1.05-4.35-1.58-6.53a.85.85,0,0,0-.46-.57.88.88,0,0,0-.69-.42,128.075,128.075,0,0,0-14.39-.61.608.608,0,0,0-.13,0,3.55,3.55,0,0,0-1.22-2.13c-1.77-1.49-4.52-1.05-6.2.35a3.32,3.32,0,0,0,0,5.35c2.22,1.73,4.95.61,7.18-.5a.81.81,0,0,0,.18-1.33,1,1,0,0,0,.18,0,131,131,0,0,1,13.87.56l7,28.73c.92,3.8,1.16,9.41,3.15,12.7a3.58,3.58,0,0,0,2.65,2.12,14.741,14.741,0,0,0,3.26.51,7.22,7.22,0,0,0-2.35,6.94c1,4,4.85,4.79,8.45,4.66s5.94-2.56,5-6.33a8.08,8.08,0,0,0-4.35-5.34c1.08,0,2.11-.08,3-.05l13.73.32,21.5.5a7.39,7.39,0,0,0-2.2,7.12,5.58,5.58,0,0,0,6.86,4.19,5.91,5.91,0,0,0,4.11-7,6.19,6.19,0,0,0-3.16-4.16l2.33.06a.9.9,0,0,0,0-1.8L237.08,242h-.73a.74.74,0,0,0-.21,0c-1.58.06-3.83.24-4.95-.15-2.95-1-2.9-3.42-3.49-5.88-.19-.75-.37-1.5-.55-2.25l7-.21a1,1,0,0,0,1.29,0l20.46-.6c9.81-.29,20.45-1.78,30.13,0a.89.89,0,0,0,.73-.18.73.73,0,0,0,.61-.44,123.351,123.351,0,0,0,8.53-23.42.86.86,0,0,0-.61-1.12Zm-94.24-8.42a1,1,0,0,0-.19.37,5.16,5.16,0,0,1-2.76.63c-1.49-.18-2.71-1.58-1.46-2.91a3.4,3.4,0,0,1,3.38-.89,1.83,1.83,0,0,1,1.03,2.8Zm78.7,46.44c2.24-.13,4.65.92,5.35,3.22a4.15,4.15,0,0,1-2.72,5.33,3.88,3.88,0,0,1-4.77-3.74A5.7,5.7,0,0,1,279.75,245.77Zm-44.07-1.48a.87.87,0,0,0,.8.58,6.5,6.5,0,0,1,5.68,3.84c.64,1.44.91,3.63-.65,4.66-.94.63-2.5.5-3.57.46-2.76-.09-5.47-1.11-5.53-4.32-.03-2.28,1.48-4.02,3.27-5.22Zm19.58-36c0,.06-.26.12-.26.19v6.06H244.11c-.16-2.16-.29-4.32-.37-6.49Zm-12,15-10.32.18q-.88-3.57-1.54-7.2h11.13q.31,3.55.74,7.04ZM242,208q.14,3.27.37,6.53H231.08q-.56-3.36-.93-6.77Zm-21.25-.48,7.6.17c.24,2.29.55,4.56.91,6.81h-6.81c-.55-2.35-1.11-4.67-1.68-7Zm2,8.77h6.83c.43,2.43.93,4.85,1.51,7.24l-6.62.12c-.58-2.47-1.11-4.92-1.7-7.38Zm3.94,15.65L225,225.43l6.58-.11c.56,2.14,1.18,4.28,1.86,6.4Zm8.59-.25q-1-3.18-1.88-6.39l10.06-.17q.42,3.15,1,6.29Zm9-15.36h10.74v6.77l-10.07.18c-.3-2.28-.5-4.64-.69-6.97Zm2,15c-.36-2.09-.76-4.18-1-6.27l9.81-.18v5.91c0,.1.26.19.28.27Zm24.89-22.72,10.23.23q-.14,2.87-.36,5.72H270.52c.17-1.95.38-3.9.65-5.86-.04-.02-.05-.04-.05-.07ZM257.84,231h-.76c0-.07-.08-.13-.08-.22v-5.94l11.14-.19c0,1.93.12,3.87.22,5.81C264.8,230.67,261.31,230.91,257.84,231Zm10.31-8.13-11.15.19v-6.74h11.35c-.15,2.21-.17,4.38-.2,6.56Zm.41-8.32H257v-6.06c0-.06.1-.1.1-.15l12.11.27c-.27,1.97-.48,3.96-.65,5.95Zm10.32,15.77c-2.86-.11-5.76,0-8.66.08-.1-1.92-.15-3.85-.16-5.77l9.78-.17c-.29,1.88-.6,3.75-1,5.62a1,1,0,0,0,.04.25Zm-8.81-7.49q0-3.24.26-6.48h10.48q-.3,3.15-.73,6.29ZM286,231c-1.75-.29-3.52-.48-5.31-.6q.57-3,1-6l6.48-.11a.9.9,0,0,0,0-1.8l-6.24.11q.44-3.12.72-6.26h8.5a.9.9,0,0,0,0-1.8h-8.32q.22-2.84.35-5.68l10.8.24A121.659,121.659,0,0,1,286,231Z" transform="translate(0.5 0.5)" fill="#fff"/>
      <path id="Path_69" data-name="Path 69" d="M463.12,683.46a.9.9,0,1,0-.48,1.74c4.33,1.25-3.84,5-4.3,5.16a31.3,31.3,0,0,1-5.79.81c-3.3.31-6.63.54-9.95.63a62.284,62.284,0,0,1-11.42-.55,37,37,0,0,1-5.21-1.16c-.8-.24-6.86-2.79-4.61-3.74,1.05-.44.59-2.18-.48-1.73-3.58,1.5-1.63,4.66,1,5.92,6.51,3.11,14.55,3.29,21.61,3,6-.21,14.52.3,19.65-3.3C465.82,688.4,467,684.58,463.12,683.46Z" transform="translate(0.5 0.5)" fill="#020202"/>
      <path id="Path_70" data-name="Path 70" d="M470.1,684.54c-.07-.34-.15-.67-.23-1v-.06a.74.74,0,0,0-.24-.83c-8.11-7-23.07-5.55-32.94-5-7.31.41-20.22-.42-22,8.87A19.48,19.48,0,0,0,416,701.15c-6.32,3.7-12.86,11.71-6.37,18.43,6.71,6.94,21,6.49,29.78,6.35a101.683,101.683,0,0,0,18.49-2c5.23-1,11.46-2.14,16.09-4.95,2.64-1.6,4.38-4.16,3.7-7.34-.61-2.87-2.65-4.73-5.05-6.11,6,1.13,12.64-3.75,13.41-10.44C487.05,686.43,477.49,680.28,470.1,684.54Zm-53.88,3a1.142,1.142,0,0,0,.07-.22v-.16c.07-.27.14-.55.23-.83a.929.929,0,0,0,0-.23c2.55-8,19.38-6.71,25.87-6.85,7.88-.16,19.25-.78,25.68,4.55a.721.721,0,0,0,0,.25c1.34,5.44,1.8,11.56-.28,16.85a.93.93,0,0,0-.69,1.53,18.365,18.365,0,0,1-1.25,2.07c-4.88,6.92-14.55,9.08-22.52,9.27-14.33.31-31.15-10.11-27.11-26.27Zm57.84,21.23c4.23,5,1.2,7.64-2.1,9.27s-7.32,2.52-10.95,3.39a99.483,99.483,0,0,1-23.44,2.75c-6.94,0-14.62-.27-21.22-2.61-4-1.41-7.26-3.8-7.35-8.26-.1-4.94,3.91-8.31,7.9-10.57,5.26,8.22,16.34,13.08,26.5,12.83,8.18-.2,17.65-2.35,23.12-8.91a16,16,0,0,0,1.21-1.66.9.9,0,0,0,.47.43c1.8.71,4.5,1.69,5.86,3.3ZM469.33,702a25.879,25.879,0,0,0,1.59-12.21c2.95-.26,7.26-.26,8.76,2.84a4.79,4.79,0,0,1-1.6,5.75,7.26,7.26,0,0,1-6.49.94.9.9,0,0,0-.48,1.73c4.93,1.3,11.39-1.29,10.75-7.3-.58-5.32-6.75-6.13-11-5.76h-.13c-.07-.52-.14-1-.23-1.57,5.91-3.83,14.12.5,13.84,7.73S475.19,706.93,469.33,702Z" transform="translate(0.5 0.5)" fill="#020202"/>
      <path id="Path_71" data-name="Path 71" d="M427.65,671.17c-5.73.67-3.23-8.48-4.44-11.74a5.34,5.34,0,0,0-4.57-3.76c-1.15-.12-1.15,1.68,0,1.8,6.81.73-.58,16.62,9,15.5C428.79,672.84,428.8,671,427.65,671.17Z" transform="translate(0.5 0.5)" fill="#020202"/>
      <path id="Path_72" data-name="Path 72" d="M443.63,658.39c-.21-3.14-2.36-5.75-4.53-7.84-.84-.8-2.11.47-1.28,1.28,2.66,2.55,5.29,6,3.22,9.77-.9,1.64-2.53,2.73-3.14,4.56-.67,2-.19,4.23,1.8,5.23,1,.52,1.94-1,.91-1.56-3.55-1.78,1.06-5.72,2-7.32a7,7,0,0,0,1.02-4.12Z" transform="translate(0.5 0.5)" fill="#020202"/>
      <path id="Path_73" data-name="Path 73" d="M462.44,651.35a.9.9,0,0,0-1.74.48,7.93,7.93,0,0,0,2.72,3.82c2.13,2,2.36,4.92-.67,7.11-1.13.82-2.55,1.19-3.68,2-2.51,1.88-3.66,4.87-1.54,7.47.73.9,2-.38,1.27-1.27-3.13-3.85,4.59-6.2,6.38-7.69a6.07,6.07,0,0,0,2.34-3.62C468.09,655.66,463.38,654.72,462.44,651.35Z" transform="translate(0.5 0.5)" fill="#020202"/>
      <path id="Path_74" data-name="Path 74" d="M625.64,281.38l-41.18-23.8a.91.91,0,0,0-1.35.78c.06,3.74.73,8.07.2,11.76-.44,3.07-.35,2.7-3,3.54-2.09.68-4.73.63-6.91.91l-24.66,3.25c-.46.07-.93.37-.9.9a156.542,156.542,0,0,0,3.41,25.51h0a.81.81,0,0,0,.8,1.18c8.13-.72,16.23-1.76,24.27-3.2,2.23-.4,4.46-.82,6.67-1.27,1.33-.28,4.61-1.67,5.69-1.24,2.9,1.17,1.7,11.2,1.49,13.76a.91.91,0,0,0,1.54.63q16.38-16.38,34.08-31.34a.9.9,0,0,0-.15-1.37Zm-35.52,16.19a276.265,276.265,0,0,1-37.16,6,152.516,152.516,0,0,1-2.6-15.75,33.249,33.249,0,0,1-.49-5.44c.22-3.53,1.48-3.09,4.81-3.53l29.59-3.9a.92.92,0,0,0,.9-.9q-.12-7.05-.23-14.1l38.7,22.36q-16.32,13.84-31.5,28.92a58.1,58.1,0,0,0-.91-13,.91.91,0,0,0-1.11-.66Z" transform="translate(0.5 0.5)" fill="#020202"/>
      <path id="Path_75" data-name="Path 75" d="M505.24,559.2a.78.78,0,0,0-.87,0,6.88,6.88,0,0,0-4.93-1.27,26,26,0,0,1,3.94-10.84c1.86-.69,3.47-1.82,2.66-3.74-1.59-3.75-11.25-2.43-14-2.23-2.94.22-9.66-.13-10,3.84a.83.83,0,0,0,0,.32,1,1,0,0,0,.49,1.35c.86.32,1.72.6,2.59.85a23.841,23.841,0,0,1,3.95,11.28.77.77,0,0,0-.57-.5,5.35,5.35,0,0,0-6.13,7.64.79.79,0,0,0,1.26.24,13.53,13.53,0,0,0,5.72,2,.932.932,0,0,0,0,.33l4.48,20c.19.82,1.61.89,1.74,0q1.47-10.31,2.93-20.61c1.14-.16,2.23-.35,3.26-.53C505.57,566.65,510,562,505.24,559.2Zm-21.43-14a1.525,1.525,0,0,0,.06-.2c.17-2.1,8.5-2.08,9.8-2.13s9.76-.9,8.69,2.52h0l-.22.35c-1.3,1.1-7.89,1.24-8.69,1.24a29.122,29.122,0,0,1-9.64-1.81Zm3.87,2.93a28.611,28.611,0,0,0,12.15-.06l1-.23a28,28,0,0,0-3.33,11l-.06.05a4.6,4.6,0,0,1-6.45,1.29,25.74,25.74,0,0,0-3.31-12.08Zm6.91,35.13q-1.68-7.46-3.35-14.92a33.712,33.712,0,0,0,5.5-.23q-1.08,7.55-2.15,15.12ZM502,565.48l-2.14.27c-1.6.17-3.2.27-4.79.4-3.81.31-7.8.71-11-1.95a.92.92,0,0,0-.4-.19,3.54,3.54,0,0,1,4.43-4,.88.88,0,0,0,1.09-.67c0,.34.05.68.05,1v.11a.71.71,0,0,0,.25.8,6.47,6.47,0,0,0,8.37-.14.92.92,0,0,0,1.35-.77v-.58a5.09,5.09,0,0,1,5.23,2,1.435,1.435,0,0,0,.13.12C505,564.12,504.13,565.3,502,565.48Z" transform="translate(0.5 0.5)" fill="#020202"/>
      <path id="Path_76" data-name="Path 76" d="M265,95.23c-2.1-1.54-5.45,2.22-7,3.34-.7.5-1.38,1-2.07,1.54a.88.88,0,0,0-.54.4Q250,104.56,245,109a.75.75,0,0,0-.26.73.71.71,0,0,0-.16.18,341.382,341.382,0,0,0-18.78,37.84c-3.44,8.18-10.88,22.07-.4,28.37a11.12,11.12,0,0,0,11.27,0c4.86-2.84,6.6-9.08,8.72-13.91q9.19-20.94,18.4-41.87a.91.91,0,0,0,.38-.47,46.211,46.211,0,0,0,2.41-15C266.53,103,266.78,96.56,265,95.23Zm-5.91,4.27a9.812,9.812,0,0,0-.63,1.1,1,1,0,0,0-.84,1.18,6.443,6.443,0,0,1-.4-.73c.56-.51,1.19-1.05,1.83-1.55ZM224.35,156c2.08-5.33,4.32-10.61,6.68-15.83,4.34-9.58,9.17-18.93,14.37-28.08a4.39,4.39,0,0,0,4.32,2.07l-22,50.41a.5.5,0,0,0,0,.13c-1.81-.69-3.62-1.38-5.43-2A43.23,43.23,0,0,1,224.35,156Zm16.17-5.6q3.4-6.55,6.56-13.23l.11.09q-4.68,9.67-9.37,19.34a.919.919,0,0,0-.28-.09c.99-2.02,1.99-4.05,2.98-6.09ZM238,145.49l1.43-3.27a1,1,0,0,0,.3.34C239.15,143.53,238.57,144.5,238,145.49Zm-6.66,20a2.435,2.435,0,0,1-.16.57l-1.84-.72c.24-.56.49-1.11.73-1.67-.07.31-.14.61-.2.92a.9.9,0,0,0,1.48.9Zm-5.07,9.11c-4-2.4-4.78-6.19-4.31-10.12q8.55,3.12,17,6.59c-3.33,4.35-7.49,6.66-12.68,3.53Zm22.57-24.74c-1.88,4.26-4.66,13.43-8.82,19.71-1.81-.75-3.62-1.47-5.43-2.19L259,117.11l.25-.16a4.18,4.18,0,0,0,2.66,3.27Zm3.54-32.69a5.049,5.049,0,0,1,.11-.66,6.149,6.149,0,0,0,.74.61,1.93,1.93,0,0,0-.36.28.67.67,0,0,0-.28,0,.73.73,0,0,0-.2-.23Zm12.27-8.92a44.321,44.321,0,0,1-2,10.41.88.88,0,0,0-.28-.17,2.28,2.28,0,0,1-1.25-2.89.74.74,0,0,0-.16-.8.91.91,0,0,0-1.68-.48,3.621,3.621,0,0,1-.82,1,.74.74,0,0,0-.81.44v.08a3.47,3.47,0,0,1-4.84-3.8c.2-1.11-1.43-1.58-1.7-.56a.83.83,0,0,0-.31.35v.11a2.56,2.56,0,0,1-4.14-1.89c2.48-2.2,5-4.35,7.62-6.4.33-.26.9-.76,1.59-1.37a8.34,8.34,0,0,0,9,4.34,11.2,11.2,0,0,0-.21,1.63Zm-.52-3.41c.07-.2.13-.41.19-.61a1.08,1.08,0,0,0,.44,0v.49a3.236,3.236,0,0,1-.62.12Z" transform="translate(0.5 0.5)" fill="#fff"/>
      <path id="Path_77" data-name="Path 77" d="M161.11,565.17q.3-9.45.56-18.91a.79.79,0,0,0-.68-.83c.78-4.56,1-10.11-3.74-12.5a12.919,12.919,0,0,0-5.46-1.08h0c.85-15.85-1.41-40.71-22.24-41.34a20.66,20.66,0,0,0-18,10.12c-5.19,8.76-3.22,21.27-2.38,30.86a.9.9,0,0,0,.29.6c-1.34.13-2.68.29-4,.51-5.14.88-8.22,4.56-7.26,9.85a.81.81,0,0,0,.3.49c-.44,5.89-.66,11.79-.57,17.7.07,4.09-.79,10.63,1.39,14.36,1.71,2.92,5,3.08,8,3.22,6.59.29,13.19.39,19.78.43q9.4,0,18.8-.19c3.28-.08,6.64,0,9.89-.33a6.326,6.326,0,0,0,3.59-1C162.14,574.67,161,568.26,161.11,565.17Zm-49.72-59.94a19.55,19.55,0,0,1,18.67-12.92C149.73,493,151,517.1,151,531.85h0c-2,0-3.06.07-4.17,0h-1.51c-1.17-10.33-.77-30.41-15.06-32-14.64-1.58-13.65,22.83-12.85,31.47a1.13,1.13,0,0,0,.1.34c-2.23,0-4.45.09-6.63.26a.88.88,0,0,0,.08-.48c-.72-8.16-2.21-18.23.43-26.21Zm19.87-3.32c11.85,2.91,11.13,20.51,12.19,29.94h0c-4-.05-8-.07-11.93-.05s-8.18-.11-12.37-.11a.86.86,0,0,0,0-.33c-.68-7.83-1.76-32.85,12.11-29.45Zm24.55,74.42c-1.37.5-4.47.17-5.93.22q-4,.12-7.91.2-6.93.12-13.86.1t-13.85-.21c-5.46-.14-13.36,1.27-14.13-6.09-1-9.79-.51-19.95.3-29.72a.74.74,0,0,0-.65-.84c.38-7.1,11.54-6,16.73-6.12q7.45-.23,14.91-.26t14.9.09c2.67,0,6.43-.44,9,.42,5.72,1.94,4.58,7.86,3.76,12.07a.93.93,0,0,0,.81,1.11q-.18,6.57-.38,13.14c-.18,4.18,1.37,14.06-3.7,15.89Z" transform="translate(0.5 0.5)" fill="#fff"/>
      <path id="Path_78" data-name="Path 78" d="M141.54,547.92c-1.43-3.78-5.69-6-9.58-5.95-3.57,0-7.3,1.82-8.62,5.28a7.54,7.54,0,0,0,2.8,9.11,1,1,0,0,0,0,.36,30.11,30.11,0,0,1-.74,9.83c-.36,1.41-1.31,3.34-.19,4.65s3.21.72,4.59.65l10.22-.5a.92.92,0,0,0,.9-.9,49.07,49.07,0,0,0-2.57-14.25,6.53,6.53,0,0,0,3.19-8.28Zm-14.88,20.66c-.11-.83.63-2.29.79-3.11s.27-1.56.37-2.35a32.59,32.59,0,0,0,.08-6.4,3.25,3.25,0,0,1-.82-1.89c-5.45-3.49-1.29-10.54,4-11a9.23,9.23,0,0,1,6.82,2.1c2.74,2.37,3.42,7.3-.68,8.82a.92.92,0,0,0-.59,1,.74.74,0,0,0-.13.76A47.79,47.79,0,0,1,139,569.6l-5.87.29c-1.88.11-6.13,1.34-6.47-1.31Z" transform="translate(0.5 0.5)" fill="#fff"/>
      <path id="Path_79" data-name="Path 79" d="M319.85,168.82c-.09-5.21-.29-10.45-.56-15.66-.12-2.45-.19-5.13-1.5-7.29-3.15-5.21-10.85-4.38-16-4.47A264.223,264.223,0,0,0,273,142.47c-4.6.42-11.27-.57-11.9,5.16-.46,4.2.12,8.86.25,13.06.13,4.65-.21,9.76.61,14.34s4.2,5.61,8.32,5.4a.82.82,0,0,0,.1.47,25.56,25.56,0,0,0,16.1,12.77.91.91,0,0,0,1.14-.87c0-3.39,0-6.77.13-10.15a1,1,0,0,0,.39,0l14.82-1.24c3.49-.29,7.36-.14,10.77-1.06C319.26,178.9,319.94,173.83,319.85,168.82ZM317.06,176c-2.56,3.45-7.56,3.17-11.35,3.48l-17.6,1.47a1,1,0,0,0-.35.09v-.72a.9.9,0,0,0-1.8,0c-.13,3.78-.18,7.55-.19,11.33a23.77,23.77,0,0,1-13.86-11.55c.48-.54.29-1.59-.6-1.5a10.19,10.19,0,0,1-3.61,0c-2.16-.6-3.67-3.59-4.13-5.78-.54-2.59-.26-5.72-.35-8.39q-.17-4.65-.26-9.32c-.05-2.53-.86-6.66.68-8.67,1.78-2.33,6.35-1.89,9.31-2.16s5.75-.48,8.63-.65q9.12-.54,18.27-.45c5.67.06,15.47-1.25,17.23,6,1.34,5.5.69,12.08.88,17.71C318.07,169.43,318.68,173.76,317.06,176Z" transform="translate(0.5 0.5)" fill="#fff"/>
      <path id="Path_80" data-name="Path 80" d="M307.4,168l-35.33,1.53c-1.15,0-1.16,1.85,0,1.8l35.33-1.53C308.55,169.74,308.56,167.94,307.4,168Z" transform="translate(0.5 0.5)" fill="#fff"/>
      <path id="Path_81" data-name="Path 81" d="M305.39,158.67A199.451,199.451,0,0,1,272.07,160c-1.16-.05-1.15,1.75,0,1.8a199.45,199.45,0,0,0,33.32-1.33C306.53,160.33,306.54,158.53,305.39,158.67Z" transform="translate(0.5 0.5)" fill="#fff"/>
      <path id="Path_82" data-name="Path 82" d="M307.37,147.8q-18.28,1.9-36.63,3c-1.15.08-1.16,1.88,0,1.8q18.35-1.12,36.63-3C308.51,149.48,308.53,147.68,307.37,147.8Z" transform="translate(0.5 0.5)" fill="#fff"/>
      <path id="Path_83" data-name="Path 83" d="M325.05,532c-.32-4.06.27-10.43-4.39-12.24-2.86-1.11-6.92-.42-9.93-.42q-6.23,0-12.46.15-12.47.3-24.91,1.21c-4.39.32-11.75-.26-14.13,4.49-.91,1.82-.79,3.9-.8,5.88,0,4.49,0,9,.06,13.47s0,9,.06,13.47c0,2-.12,4.66,1.33,6.31s3.55,1.66,5.68,1.44c4.07-.4,8.14-1.11,12.19-1.73a.419.419,0,0,0,0,.15,24.4,24.4,0,0,0,16,12.78.91.91,0,0,0,1.14-.87c-.21-3.45-.42-6.91-.64-10.36a106.482,106.482,0,0,0,21.94-2.36c4.32-.94,8.59-1.61,9.33-6.55C326.73,548.92,325.68,539.94,325.05,532Zm-1.18,21.54c-.27,2.24-1.27,5.55-3.33,6.89-1.07.7-3.62,1-4.81,1.21a104.247,104.247,0,0,1-21.57,2.29v-.28c-.07-1.15-1.87-1.16-1.8,0,.23,3.75.46,7.62.69,11.36-5.83-1.79-10.56-5-13.44-11h0c1.14,0,.66-2-.48-1.86-3.61.52-7.22,1-10.84,1.49-1.38.21-2.77.36-4.16.53l-3.73-3.92c-.44-1.2-.05-3.9-.05-5.11q0-9.61-.08-19.24c0-4.29-1.05-9.94,3.63-12.21,3.08-1.49,8-1.08,11.39-1.32q10-.69,20.11-1c6.58-.19,13.58-.86,20.14-.2,6.74.67,7.32,5.62,7.72,10.83q.42,5.37.58,10.76A76.061,76.061,0,0,1,323.87,553.54Z" transform="translate(0.5 0.5)" fill="#fff"/>
      <path id="Path_84" data-name="Path 84" d="M277.4,544.66a13.3,13.3,0,0,0-1.43-1.9c-.47-.54-1-1.07-1.47-1.57q-4-3,.29-7.36c1.13.27,1.61-1.46.48-1.73-3.26-.77-5.75,1.84-5.24,5.13.41,2.63,2.57,4.38,4.19,6.27,3.69,4.3,3,10.27-2.4,12.73-1.05.47-.14,2,.91,1.55a9.59,9.59,0,0,0,5.76-8.1A8.86,8.86,0,0,0,277.4,544.66Z" transform="translate(0.5 0.5)" fill="#fff"/>
      <path id="Path_85" data-name="Path 85" d="M294.36,532.15c-.09-.82-1.2-1.32-1.67-.46l-3.4,6.21a40,40,0,0,0-4.56-4.74.91.91,0,0,0-1.53.64q.6,11,1.8,21.86c.13,1.14,1.93,1.15,1.8,0q-1.08-9.81-1.67-19.67a38.311,38.311,0,0,1,3.53,4,.9.9,0,0,0,1.55,0l2.7-4.92,2.54,21.3c.13,1.13,1.94,1.15,1.8,0Q295.81,544.24,294.36,532.15Z" transform="translate(0.5 0.5)" fill="#fff"/>
      <path id="Path_86" data-name="Path 86" d="M311.63,552.14A10.7,10.7,0,0,0,309,547c-3.56-4.47-7.38-10.71.18-14.14,1.05-.48.14-2-.91-1.55a8.78,8.78,0,0,0-5.43,8.45A9.77,9.77,0,0,0,305,545c.69,1,1.58,1.81,2.33,2.74,1.37,1.71,5.86,8.12-.5,8.63-1.15.1-1.16,1.9,0,1.8a5.07,5.07,0,0,0,4.8-6.03Z" transform="translate(0.5 0.5)" fill="#fff"/>
      <path id="Path_87" data-name="Path 87" d="M426,591.4c-.7-7-7.28-12-14-11.93.92-7.86-2.77-16-10-19.72-7.49-3.87-16.73-1.79-22.51,4a21.87,21.87,0,0,0-31.1-15.43c-16,7.78-18.29,27.11-12.68,42.29-5.92.42-12.07,4.37-11.08,11.1,1.15,7.87,10.88,7.47,16.84,7.53,24,.22,47.87-4,71.91-2.74a.77.77,0,0,0,.81-.53C421.06,604.81,426.77,598.69,426,591.4Zm-12.66,13a.92.92,0,0,0-.65.36c-16.12-.77-32.17.81-48.24,1.91-8,.55-16,1-24,.85-3.54-.06-7.94.32-11.07-1.59a6.61,6.61,0,0,1-2.29-8.77c1.69-3.35,5.43-4.52,8.9-4.69a.88.88,0,0,0,.85-.86.77.77,0,0,0,.67-1.06c-5.17-13.64-4.12-30.61,9.21-39.18a20.17,20.17,0,0,1,31,13.23.75.75,0,0,0,.83.64.87.87,0,0,0,1.49.51c5.16-5.7,13.88-8,20.95-4.4a17.78,17.78,0,0,1,9.07,18.45,1,1,0,0,0-.17,1.37c.14.85,1.49,1.12,1.72.16,5.53-.11,11,3.39,12.33,9,1.68,6.79-3.94,13.25-10.56,14.02Z" transform="translate(0.5 0.5)" fill="#fff"/>
      <path id="Path_88" data-name="Path 88" d="M389.67,583.44l-9.73-.75a63.6,63.6,0,0,1,3.15-13.25.91.91,0,0,0-.87-1.14l-20.87,1.75a.91.91,0,0,0-.86,1.14l3.85,12.75a.59.59,0,0,0,.1.17,17.93,17.93,0,0,0-8.65,1.31.91.91,0,0,0,0,1.73,105.406,105.406,0,0,1,20.83,11,.91.91,0,0,0,1.09-.14q6.3-6.5,12.59-13a.9.9,0,0,0-.63-1.57Zm-12,12c-1.82.63-3-.74-4.45-1.63a102,102,0,0,0-14.64-7.4,17.418,17.418,0,0,1,6.11-.45c.84.08,1.06-.84.68-1.4a.82.82,0,0,0,.68-1.07l-3.54-11.71,18.39-1.54a64.411,64.411,0,0,0-2.77,12.34h-.08c-1.15-.09-1.15,1.71,0,1.8h.23a1,1,0,0,0,.91.07l8.47.66-6.21,6.42c-.67.69-2.82,3.55-3.75,3.88Z" transform="translate(0.5 0.5)" fill="#fff"/>
      <path id="Path_89" data-name="Path 89" d="M381.57,696.55q-1.1-16.72-2.2-33.43-.51-7.86-1-15.73c-.31-4.73.17-10.32-1.17-14.89-2.33-8-15.28-5.19-21.33-5a292.378,292.378,0,0,0-36.17,3.56c-1.14.18-.65,1.92.48,1.74,8.92-1.43,17.89-2.48,26.91-3.07q6.33-.4,12.68-.54,3.42-.08,6.83-.06c3.62,0,8,1.36,9,5.14,1.07,4,.67,9,.94,13.1l.84,12.78q.87,13.27,1.75,26.54c.54,8.25,1.55,16.61,1.61,24.87.05,6.65-5.35,7.71-10.64,8.55q-7.53,1.2-15.12,1.8-6.25.51-12.55.6c-4.06.07-10.66,1.06-14-1.43-3.62-2.72-2.84-9-3.05-13.19q-.33-7-.68-14l-2.92-59.79c-.06-1.16-1.86-1.16-1.8,0q1.65,33.89,3.31,67.77c.24,4.86.09,9.93.84,14.74.38,2.46,1.2,5,3.44,6.42,3,1.86,7.63,1.25,11,1.26,5.47,0,10.95-.18,16.41-.62q6.87-.54,13.68-1.57c3.51-.52,8.71-.51,11.53-3,2-1.75,2.33-4.42,2.36-6.91C382.6,707,381.91,701.74,381.57,696.55Z" transform="translate(0.5 0.5)" fill="#fff"/>
      <path id="Path_90" data-name="Path 90" d="M352.49,632.75a52.922,52.922,0,0,1-11.08,2.06c-1.15.09-1.16,1.89,0,1.8A55.514,55.514,0,0,0,353,634.49a.907.907,0,0,0-.51-1.74Z" transform="translate(0.5 0.5)" fill="#fff"/>
      <path id="Path_91" data-name="Path 91" d="M357.49,710a3.81,3.81,0,0,0-5.28.23,3.54,3.54,0,0,0-2.32,5.18c1.37,2.33,4.75,2.62,6.8,1.07S359.56,711.76,357.49,710Zm-1.56,4.76a3.06,3.06,0,0,1-3.82.42c-1.13-.77-1.11-2.74.2-3.13a.75.75,0,0,0,1-.23.84.84,0,0,0,.34-.47,2,2,0,0,1,2.56-.11c1.18.83.62,2.58-.28,3.47Z" transform="translate(0.5 0.5)" fill="#fff"/>
      <path id="Path_92" data-name="Path 92" d="M375.25,695.61q-3.66-27.9-5.08-56c-.06-1.16-1.86-1.16-1.8,0q1.41,27.95,5,55.7a260.92,260.92,0,0,0-40.48,8.11q-1.59-24.73-3.2-49.45c-.18-2.76-1.86-9,.25-10.93.93-.84,5.33-.58,6.66-.72l6.66-.72L368,639c1.14-.12,1.15-1.92,0-1.8l-40,4.3a.92.92,0,0,0-.9.9l4,62a.94.94,0,0,0,.11.39.85.85,0,0,0,1.09.72A257.78,257.78,0,0,1,374.12,697a.92.92,0,0,0,.81-.71.69.69,0,0,0,.32-.68Z" transform="translate(0.5 0.5)" fill="#fff"/>
      <path id="Path_93" data-name="Path 93" d="M468.27,94.37c-6.4-4.52-14.19-7.44-22.1-6.55-8.82,1-14.19,6.49-19,13.43q-.22-5-.42-9.93c-.17-4.33.29-10.13-2.91-13.59a8.17,8.17,0,0,0-3.28-2.1.387.387,0,0,1,.05-.23,1,1,0,0,0-.42-1,1.66,1.66,0,0,0-2.45.42.776.776,0,0,0-.1.15c-2.07-.27-4.23-.23-6.15-.32q-11.65-.5-23.33-.43-10.69.08-21.37.62c-7.41.38-16,0-23.26,1.78-2.08.5-3.78,1.28-3,3.69a3,3,0,0,0,.74,1.16.84.84,0,0,0-1,.85q.07,11.52.14,23c0,1.08,0,2.19-.05,3.31a.84.84,0,0,0-.7.4,5,5,0,0,1-9-3.91.85.85,0,0,0-.31-.91c.5-.84-.64-1.92-1.37-1.11-2.1,2.33-3.42,5.28-5.57,7.54a7.78,7.78,0,0,1-4.58,2.62c-2.29.25-5.59-2.44-3.37-4.86.78-.86-.49-2.13-1.28-1.28a4.28,4.28,0,0,0-1.08,2.26.82.82,0,0,0-.44.23,25.811,25.811,0,0,1-2.3,2.26l-3.42,2.05-5.88-2.83c-1.54-2.59,1.16-7.39,2.26-9.77,2-4.36,4.52-8.73,8.24-11.86,10.53-8.87,20.26-1.23,27.24,7.47.72.9,2-.38,1.27-1.27-4.36-5.44-9.57-11.57-17-12.11s-14,4.67-17.93,10.69c-3,4.54-8.33,13.11-5.22,18.68,3.33,6,9.82,2,13.41-1.41a5.33,5.33,0,0,0,4,3.54c5.51,1,8.55-4.66,11.42-8.71a6.62,6.62,0,0,0,11.6,4.77c-.2,5.13-.47,10.44.34,15.25a8.171,8.171,0,0,0,1,2.85l-.43.58c-.7.92.86,1.82,1.55.91l.07-.1a7.69,7.69,0,0,0,3.87,1.56c7.19,1.1,15.14.28,22.4.36,15.2.16,30.4.38,45.6.49,4.23,0,7.41-.12,10-3.84.15-.22.29-.44.43-.67A.89.89,0,0,0,426,127l-.08-.09c1.82-4.06,1.85-8.86,1.75-13.2q-.08-3.24-.2-6.48c2,4.31,4.79,8.62,9.9,9.13a6.85,6.85,0,0,0,6.93-4,7.29,7.29,0,0,0,7.33,2c3.85-1.17,5.66-5.25,5.38-9,4.32,2.93,9.66,5.08,14.07,1.12C475.93,102.07,472.56,97.39,468.27,94.37ZM345.49,78.21c1.43-.54,4.29-.4,5.81-.53q16.47-1.4,33-1.64c10.74-.16,21.85-.49,32.54.67a3.752,3.752,0,0,1,.77.13c-5.22,4.48-20,17.5-21.52,19s-3.25,4-5.09,5.14c-5.08,3.1-8,.06-11.73-2.18q-7.08-4.29-14.46-8.08-6.56-3.36-13.3-6.3c-1.76-.76-3.58-1.41-5.31-2.23C342.82,80.55,341.78,79.63,345.49,78.21Zm-3.15,41.51q-.12-18.7-.23-37.42a.72.72,0,0,0-.05-.21,15.21,15.21,0,0,0,1.74,1c3.27,1.64,6.82,2.81,10.16,4.32q7.13,3.24,14,7a.114.114,0,0,0-.1.08L343.27,127.1C342.38,124.89,342.36,122.06,342.34,119.72ZM418,131.23c-2.5.5-5.73,0-8.28-.07l-33.7-.35-18.84-.2c-3,0-6.16.12-9.21-.13a5.18,5.18,0,0,1-3.73-1.76L369.4,95.37a1.3,1.3,0,0,0,.08-.17q2.87,1.58,5.69,3.22c3.87,2.26,9.75,8.16,14.61,5.87,2.91-1.36,5.3-5,7.55-7.23l1.15-1.1Q410,111.2,422.42,125.65a.86.86,0,0,0-.2,1.59l1.17.53a7.91,7.91,0,0,1-5.39,3.46Zm7.27-8.37a20.192,20.192,0,0,1-.74,2.54q-12.9-14.93-24.75-30.68,3-2.89,6.15-5.69,4.4-3.9,9-7.6c1.59-1.28,3.67-2.35,4.85-4,5.23,2.18,5,8.39,5.19,13.88l.66,17.07c.19,4.76.72,9.79-.33,14.48Zm37.42-16.48c-2.82-.81-5.24-2.77-7.46-4.58-.9-.72-2.18.55-1.28,1.28l.89.7c.88,3,.1,6.75-2.81,8.41a5.58,5.58,0,0,1-7.38-2.19,4.4,4.4,0,0,0-.43-1.67c-.2-.49-.67-.33-1.09-.33h0s-.08-.24-.12-.23c-.4,0-.74.2-.68.72a6.4,6.4,0,0,0,.47,1.74,4.24,4.24,0,0,1-1.51,3.32c-2.25,1.9-5.4,1.08-7.56-.47-2.9-2.07-4.32-5.51-5.64-8.71a1,1,0,0,0-.82-.59v-1.12a.94.94,0,0,0,1.31-.23c3-4.35,6-8.63,10.95-10.93a24.08,24.08,0,0,1,16.05-1.22c4.56,1.15,10.66,3.72,13.95,7.28,5.12,5.56-1.83,10.26-6.81,8.82Z" transform="translate(0.5 0.5)" fill="#fff"/>
      <path id="Path_94" data-name="Path 94" d="M287.27,686.34a34.85,34.85,0,0,0-6.33-19,29.61,29.61,0,0,0-10.58-9c6-.7,11.88-3.44,14-9.4,2.78-7.89-1.42-18.05-9.26-21.16s-15.79,2-18.06,9.73c-2,7,1.18,13.67,6.14,18.4a26,26,0,0,0-15,1.53c-10,4.18-22.68,16.5-20.08,28.34.25,1.13,2,.65,1.74-.48-2.66-12.07,12.43-25,23-27.51a23.389,23.389,0,0,1,11.16,0,.88.88,0,0,0,.79.61c.51,0,1,.07,1.53.09l.2.07.23.16a.81.81,0,0,0,.56.14,28.62,28.62,0,0,1,15.24,14.76,35.93,35.93,0,0,1,2.87,17.73c-.14,1.74-.16,4.41-1.42,5.87-1.4,1.62-2.66.62-4.61.13L269.66,695,231,685.47c-1.12-.28-1.6,1.46-.48,1.73l29,7.17,13.54,3.35c2.94.72,7.75,3,10.81,2.55C288.17,699.6,287.4,689.32,287.27,686.34Zm-28.84-47c1.56-7.91,9.72-13.29,17.31-9.22,6.63,3.56,10,13.95,5.81,20.47-3.1,4.78-9.15,6.25-14.59,6.2-5.46-3.95-9.96-10.46-8.53-17.48Z" transform="translate(0.5 0.5)" fill="#fff"/>
      <path id="Path_95" data-name="Path 95" d="M296.39,597.89a7.72,7.72,0,0,0-7.52-5.82c-4.07-.12-7.25,2.48-9.51,5.59-1.43-2.75-3.39-5.49-6.7-5.82a7.6,7.6,0,0,0-7,3.91c-4.6,7.87,4.15,15,9.87,18.76,1,.64,1.87-.91.91-1.55-4.19-2.79-9.26-6.14-9.94-11.59-.5-4,2.12-8.41,6.78-7.59,2.66.46,4.25,4.14,5.26,6.28.44.94,1.71.31,1.64-.57a1.059,1.059,0,0,0,.28-.28c2.12-3.14,5.36-5.94,9.41-5.16,5.86,1.13,5.69,7.66,2.54,11.41-3.64,4.33-9.84,6.84-15.11,8.34a.9.9,0,1,0,.48,1.74C285.1,613.46,298.56,607.73,296.39,597.89Z" transform="translate(0.5 0.5)" fill="#fff"/>
      <path id="Path_96" data-name="Path 96" d="M231.21,612.34c1.89-2.46,7.58-7.57,6.77-11.08-.76-3.3-6.3-3.7-8.81-4-5.61-.77-11.29-.23-16.9.35a.851.851,0,0,0,0-.16,67.19,67.19,0,0,0-5.33-16c-1.37-2.81-3.51-7.52-7.29-7.59s-5.42,5.13-6.65,7.8A94.711,94.711,0,0,0,187.78,596a.93.93,0,0,0-.39-.08,125.794,125.794,0,0,0-18.08,1.66c-2.35.4-8.53.32-9.33,3.57-.68,2.77,2.66,4.93,4.52,6.18a139.055,139.055,0,0,0,17.5,9.93,92.771,92.771,0,0,0-8.34,17.26c-1,2.64-3.72,8.25.33,9.87,3.17,1.25,8.46-1.41,11.27-2.6A52.339,52.339,0,0,0,199.15,633a1,1,0,0,0,.29.31L214.85,644c2.19,1.51,5.17,4.14,7.78,1.92,1.84-1.56,1.87-4.59,1.66-6.75a46.52,46.52,0,0,0-3.71-13.38.934.934,0,0,0,.12-.09Q226,619.06,231.21,612.34Zm-11.5,11.41c-.48-1-2-.14-1.55.91a54.93,54.93,0,0,1,3.54,10.27c.81,3.51,2.63,11.31-4.47,8.49-2.78-1.11-5.6-3.86-8.08-5.57l-8.81-6.07h0a.93.93,0,0,0-1.54-.77,51.561,51.561,0,0,1-10.14,7.21c-3.08,1.64-7.32,4.13-10.86,4.21-7,.15-1.43-10.18-.15-13.09a93.773,93.773,0,0,1,5.93-11.21q-.2-1.169-.49-2.32c-3.33-1.6-6.61-3.28-9.81-5.12q-2.4-1.39-4.74-2.86c-2.16-1.36-5.85-2.57-5.33-5.48-.42-1.64.24-2.35,2-2.11.92-.2,1.85-.38,2.78-.55,2.13-.4,4.26-.72,6.41-1a123.883,123.883,0,0,1,13-.94.76.76,0,0,0,.51-.19.89.89,0,0,0,1.44-.42,94.205,94.205,0,0,1,2.86-9c.72-1.9,1.51-3.77,2.35-5.61,1.42-3.08,1.37-4.12,4.95-4.78,2.2-1.28,3.64-.75,4.35,1.61.4.73.79,1.47,1.16,2.22a60.619,60.619,0,0,1,2.59,5.9,68.574,68.574,0,0,1,2.94,10.44.77.77,0,0,0,.13.32c-.26.56,0,1.34.75,1.26,4.14-.43,25.92-3.44,23.84,4.57-.29,1.14-2.63,3.51-3.35,4.46-1.45,1.91-2.92,3.82-4.39,5.71q-3.83,4.9-7.73,9.74Z" transform="translate(0.5 0.5)" fill="#fff"/>
    </g>
  </g>
</svg>
